<svg xmlns="http://www.w3.org/2000/svg" xmlns:xlink="http://www.w3.org/1999/xlink" width="60" height="60" viewBox="0 0 60 60">
  <defs>
    <clipPath id="clip-path">
      <rect id="Rectangle_59" data-name="Rectangle 59" width="60" height="60" transform="translate(1495 593)" fill="#fff"/>
    </clipPath>
  </defs>
  <g id="Mask_Group_16" data-name="Mask Group 16" transform="translate(-1495 -593)" clip-path="url(#clip-path)">
    <g id="info" transform="translate(1495 592.808)">
      <path id="Path_25" data-name="Path 25" d="M.315,21.087A52.261,52.261,0,0,0,13.891,43.828l.01.01.045.045.01.01A51.582,51.582,0,0,0,36.814,57.469a5.191,5.191,0,0,0,6.758-3.482l2.36-8.842a1.762,1.762,0,0,0-.986-2.065L33.421,37.95a1.763,1.763,0,0,0-1.98.381c-.708.727-2.308,2.359-3.413,3.453a47.68,47.68,0,0,1-6.4-5.485l-.024-.024a50.1,50.1,0,0,1-5.589-6.395c1.354-1.361,3.42-3.4,3.448-3.428a1.763,1.763,0,0,0,.373-1.97l-5.106-11.5a1.762,1.762,0,0,0-2.06-.989L3.8,14.328A5.19,5.19,0,0,0,.315,21.087Zm4.359-3.343.017,0,7.425-1.956,4,9.016c-1.141,1.13-3.066,3.042-3.661,3.672a1.763,1.763,0,0,0-.192,2.18,50.606,50.606,0,0,0,6.857,8.127,49.39,49.39,0,0,0,8.13,6.742,1.762,1.762,0,0,0,2.141-.161c.67-.6,2.574-2.528,3.714-3.691l9.03,4.02-1.974,7.4c0,.007,0,.015-.006.022a1.7,1.7,0,0,1-2.305.991A47.724,47.724,0,0,1,16.436,41.388l-.04-.04a48.651,48.651,0,0,1-12.712-21.3A1.7,1.7,0,0,1,4.674,17.743Zm0,0" transform="translate(-0.049 2.265)" fill="#fff"/>
      <path id="Path_26" data-name="Path 26" d="M37.36,7.817A1.763,1.763,0,1,1,35.6,6.055,1.763,1.763,0,0,1,37.36,7.817Zm0,0" transform="translate(6.702 1.23)" fill="#fff"/>
      <path id="Path_27" data-name="Path 27" d="M39.72,22.489H37.958V13.677A1.762,1.762,0,0,0,36.2,11.914H32.67a1.763,1.763,0,0,0,0,3.525h1.763v7.05H32.67a1.763,1.763,0,1,0,0,3.525h7.05a1.763,1.763,0,0,0,0-3.525Zm0,0" transform="translate(6.102 2.371)" fill="#fff"/>
      <path id="Path_28" data-name="Path 28" d="M38.279,0A17.82,17.82,0,0,0,20.654,17.86a17.579,17.579,0,0,0,2.293,8.7l-2.2,6.607a1.763,1.763,0,0,0,2.23,2.229l6.607-2.2A17.723,17.723,0,0,0,56.022,17.86,17.915,17.915,0,0,0,38.279,0Zm0,31.96a14.055,14.055,0,0,1-7.542-2.184,1.763,1.763,0,0,0-1.5-.184L25.2,30.936,26.547,26.9a1.762,1.762,0,0,0-.184-1.5,14.055,14.055,0,0,1-2.184-7.542,14.235,14.235,0,0,1,14.1-14.335A14.468,14.468,0,0,1,52.5,17.86,14.175,14.175,0,0,1,38.279,31.96Zm0,0" transform="translate(3.978)" fill="#fff"/>
    </g>
  </g>
</svg>
