<svg xmlns="http://www.w3.org/2000/svg" xmlns:xlink="http://www.w3.org/1999/xlink" width="20" height="20" viewBox="0 0 20 20">
  <defs>
    <clipPath id="clip-path">
      <rect id="Rectangle_326" data-name="Rectangle 326" width="20" height="20" transform="translate(920 629)" fill="#005e9e" stroke="#707070" stroke-width="1"/>
    </clipPath>
  </defs>
  <g id="Mask_Group_103" data-name="Mask Group 103" transform="translate(-920 -629)" clip-path="url(#clip-path)">
    <g id="calendar_2_" data-name="calendar(2)" transform="translate(920 629)">
      <g id="Group_151" data-name="Group 151">
        <path id="Path_218" data-name="Path 218" d="M3.022,20H16.978a2.654,2.654,0,0,0,2.652-2.652V4.133a2.654,2.654,0,0,0-2.652-2.652H15.926V.741a.741.741,0,0,0-1.482,0v.741H5.556V.741a.741.741,0,0,0-1.482,0v.741H3.022A2.654,2.654,0,0,0,.37,4.133V17.348A2.654,2.654,0,0,0,3.022,20ZM1.852,4.133a1.173,1.173,0,0,1,1.17-1.17H4.074V3.7a.741.741,0,0,0,1.481,0V2.963h8.889V3.7a.741.741,0,0,0,1.481,0V2.963h1.052a1.173,1.173,0,0,1,1.17,1.17V17.348a1.173,1.173,0,0,1-1.17,1.17H3.022a1.173,1.173,0,0,1-1.17-1.17Z" fill="#005e9e"/>
        <circle id="Ellipse_69" data-name="Ellipse 69" cx="0.926" cy="0.926" r="0.926" transform="translate(4.815 6.667)" fill="#005e9e"/>
        <circle id="Ellipse_70" data-name="Ellipse 70" cx="0.926" cy="0.926" r="0.926" transform="translate(8.889 6.667)" fill="#005e9e"/>
        <circle id="Ellipse_71" data-name="Ellipse 71" cx="0.926" cy="0.926" r="0.926" transform="translate(12.963 6.667)" fill="#005e9e"/>
        <circle id="Ellipse_72" data-name="Ellipse 72" cx="0.926" cy="0.926" r="0.926" transform="translate(4.815 10.37)" fill="#005e9e"/>
        <circle id="Ellipse_73" data-name="Ellipse 73" cx="0.926" cy="0.926" r="0.926" transform="translate(8.889 10.37)" fill="#005e9e"/>
        <circle id="Ellipse_74" data-name="Ellipse 74" cx="0.926" cy="0.926" r="0.926" transform="translate(12.963 10.37)" fill="#005e9e"/>
        <circle id="Ellipse_75" data-name="Ellipse 75" cx="0.926" cy="0.926" r="0.926" transform="translate(4.815 14.074)" fill="#005e9e"/>
        <circle id="Ellipse_76" data-name="Ellipse 76" cx="0.926" cy="0.926" r="0.926" transform="translate(8.889 14.074)" fill="#005e9e"/>
        <circle id="Ellipse_77" data-name="Ellipse 77" cx="0.926" cy="0.926" r="0.926" transform="translate(12.963 14.074)" fill="#005e9e"/>
      </g>
    </g>
  </g>
</svg>
