<svg xmlns="http://www.w3.org/2000/svg" xmlns:xlink="http://www.w3.org/1999/xlink" width="16" height="16" viewBox="0 0 16 16">
  <defs>
    <clipPath id="clip-path">
      <rect id="Rectangle_156" data-name="Rectangle 156" width="16" height="16" transform="translate(1420 182)" fill="#fff"/>
    </clipPath>
  </defs>
  <g id="Mask_Group_39" data-name="Mask Group 39" transform="translate(-1420 -182)" clip-path="url(#clip-path)">
    <g id="calendar_1_" data-name="calendar(1)" transform="translate(1420.296 182)">
      <g id="Group_73" data-name="Group 73" transform="translate(0)">
        <path id="Path_68" data-name="Path 68" d="M3.233,16H14.4a2.123,2.123,0,0,0,2.121-2.121V3.307A2.123,2.123,0,0,0,14.4,1.185h-.841V.593a.593.593,0,0,0-1.185,0v.593H5.259V.593a.593.593,0,0,0-1.185,0v.593H3.233A2.123,2.123,0,0,0,1.111,3.307V13.879A2.123,2.123,0,0,0,3.233,16ZM2.3,3.307a.938.938,0,0,1,.936-.936h.841v.593a.593.593,0,1,0,1.185,0V2.37H12.37v.593a.593.593,0,0,0,1.185,0V2.37H14.4a.938.938,0,0,1,.936.936V13.879a.938.938,0,0,1-.936.936H3.233a.938.938,0,0,1-.936-.936Z" transform="translate(-1.111 0)" fill="#fff"/>
        <circle id="Ellipse_29" data-name="Ellipse 29" cx="0.741" cy="0.741" r="0.741" transform="translate(3.556 5.333)" fill="#fff"/>
        <circle id="Ellipse_30" data-name="Ellipse 30" cx="0.741" cy="0.741" r="0.741" transform="translate(6.815 5.333)" fill="#fff"/>
        <circle id="Ellipse_31" data-name="Ellipse 31" cx="0.741" cy="0.741" r="0.741" transform="translate(10.074 5.333)" fill="#fff"/>
        <circle id="Ellipse_32" data-name="Ellipse 32" cx="0.741" cy="0.741" r="0.741" transform="translate(3.556 8.296)" fill="#fff"/>
        <circle id="Ellipse_33" data-name="Ellipse 33" cx="0.741" cy="0.741" r="0.741" transform="translate(6.815 8.296)" fill="#fff"/>
        <circle id="Ellipse_34" data-name="Ellipse 34" cx="0.741" cy="0.741" r="0.741" transform="translate(10.074 8.296)" fill="#fff"/>
        <circle id="Ellipse_35" data-name="Ellipse 35" cx="0.741" cy="0.741" r="0.741" transform="translate(3.556 11.259)" fill="#fff"/>
        <circle id="Ellipse_36" data-name="Ellipse 36" cx="0.741" cy="0.741" r="0.741" transform="translate(6.815 11.259)" fill="#fff"/>
        <circle id="Ellipse_37" data-name="Ellipse 37" cx="0.741" cy="0.741" r="0.741" transform="translate(10.074 11.259)" fill="#fff"/>
      </g>
    </g>
  </g>
</svg>
