<svg xmlns="http://www.w3.org/2000/svg" xmlns:xlink="http://www.w3.org/1999/xlink" width="24" height="24" viewBox="0 0 24 24">
  <defs>
    <clipPath id="clip-path">
      <rect id="Rectangle_157" data-name="Rectangle 157" width="24" height="24" transform="translate(1883 2406)" fill="#005e9e"/>
    </clipPath>
  </defs>
  <g id="Mask_Group_42" data-name="Mask Group 42" transform="translate(-1883 -2406)" clip-path="url(#clip-path)">
    <g id="layer1" transform="translate(1881.286 4870.697)">
      <path id="path1983" d="M5.145-2462.124a3.437,3.437,0,0,0-3.43,3.423v5.145a3.443,3.443,0,0,0,3.43,3.43v2.575a.857.857,0,0,0,.531.786.857.857,0,0,0,.93-.185l3.176-3.176h5.65a3.437,3.437,0,0,0,3.424-3.43v-5.145a3.431,3.431,0,0,0-3.424-3.423Zm0,1.716H15.432a1.688,1.688,0,0,1,1.716,1.708v5.145a1.693,1.693,0,0,1-1.716,1.714h-6a.858.858,0,0,0-.6.252l-1.967,1.969v-1.361a.857.857,0,0,0-.854-.861h-.86a1.692,1.692,0,0,1-1.714-1.714v-5.145A1.686,1.686,0,0,1,5.145-2460.408Zm14.571,1.708v1.714h2.57A1.693,1.693,0,0,1,24-2455.27v5.145a1.692,1.692,0,0,1-1.714,1.714H21.43a.856.856,0,0,0-.609.251.857.857,0,0,0-.251.609v1.354l-1.96-1.962a.858.858,0,0,0-.608-.253H12a1.688,1.688,0,0,1-1.483-.854h-.383l-1,1A3.43,3.43,0,0,0,12-2446.7h5.643l3.177,3.176a.857.857,0,0,0,.933.184.857.857,0,0,0,.529-.79v-2.57a3.44,3.44,0,0,0,3.429-3.429v-5.145a3.442,3.442,0,0,0-3.429-3.43Z" fill="#005e9e"/>
    </g>
  </g>
</svg>
