<svg xmlns="http://www.w3.org/2000/svg" width="51.037" height="20.426" viewBox="0 0 51.037 20.426">
    <defs>
        <style>
            .cls-1{fill:#a6b049}
        </style>
    </defs>
    <g id="Group_176" transform="translate(-939 -875.376)">
        <g id="Group_172" transform="translate(958.011 875.376)">
            <g id="Group_6">
                <path id="Path_7" d="M222.851 99.384l-1.172-1.047a27.024 27.024 0 0 1-2.471-2.516l-.77-.893-1.179 1.353a21.534 21.534 0 0 1-1.972 1.987l-1.269 1.123a7.568 7.568 0 0 0-2.676 5.888c0 4.414 2.765 7.543 7.1 7.543s7.1-3.129 7.1-7.543a7.569 7.569 0 0 0-2.691-5.895zm.576 5.728c0 .221-.005.434-.013.644l-4.832 4.341v-4.521l4.451-3.66a11.733 11.733 0 0 1 .394 3.196zm-9.978 0a11.733 11.733 0 0 1 .393-3.2l4.451 3.659v4.529l-4.832-4.34c-.006-.214-.012-.427-.012-.648zm8.479-5.442h-.01a5.989 5.989 0 0 1 1.024 1.948l-4.361 3.585v-9.836zm-6.982 0l3.347-4.3v9.83l-4.361-3.585a5.987 5.987 0 0 1 1.024-1.948zm-1.465 6.49l4.812 4.323v2.057c-2.293-.069-4.518-1.797-4.811-6.379zm5.1 6.379v-2.059l4.812-4.323c-.293 4.586-2.52 6.315-4.811 6.383z" class="cls-1" transform="translate(-211.34 -94.929)"/>
            </g>
        </g>
        <g id="Group_175" transform="translate(939 877.914)">
            <g id="Group_173" transform="translate(0 5.62) rotate(-30)">
                <g id="Group_6-2">
                    <path id="Path_7-2" d="M9.114 3.527L8.185 2.7A21.39 21.39 0 0 1 6.229.707L5.619 0l-.934 1.071a17.05 17.05 0 0 1-1.561 1.573l-1.005.889A5.992 5.992 0 0 0 0 8.195c0 3.495 2.189 5.972 5.62 5.972s5.62-2.477 5.62-5.972a5.992 5.992 0 0 0-2.126-4.668zm.456 4.535c0 .175 0 .344-.011.51l-3.825 3.437V8.43l3.524-2.9a9.289 9.289 0 0 1 .312 2.532zm-7.9 0a9.289 9.289 0 0 1 .311-2.53l3.524 2.9v3.579L1.681 8.572c-.007-.166-.011-.335-.011-.51zm6.713-4.308h-.007a4.741 4.741 0 0 1 .81 1.546L5.733 8.135V.347zm-5.528 0L5.506.347v7.788L2.053 5.3a4.74 4.74 0 0 1 .811-1.543zM1.7 8.892l3.81 3.422v1.628c-1.818-.054-3.582-1.422-3.81-5.05zm4.037 5.051V12.319l3.81-3.423c-.235 3.625-1.999 4.993-3.814 5.047z" class="cls-1"/>
                </g>
            </g>
            <g id="Group_174" transform="translate(43.954 17.889) rotate(-150)">
                <g id="Group_6-3" transform="translate(0 0)">
                    <path id="Path_7-3" d="M9.114 10.64l-.928.829a21.392 21.392 0 0 0-1.957 1.991l-.609.707-.935-1.067a17.053 17.053 0 0 0-1.561-1.573l-1.005-.889A5.992 5.992 0 0 1 0 5.972C0 2.477 2.189 0 5.62 0s5.62 2.477 5.62 5.972a5.992 5.992 0 0 1-2.126 4.668zM9.57 6.1c0-.175 0-.344-.011-.51L5.734 2.159v3.579l3.524 2.9A9.29 9.29 0 0 0 9.57 6.1zm-7.9 0a9.29 9.29 0 0 0 .311 2.53l3.524-2.9V2.159L1.68 5.595c-.006.166-.01.335-.01.505zm6.713 4.308h-.007a4.741 4.741 0 0 0 .81-1.542L5.733 6.032v7.788zm-5.528 0l2.65 3.407V6.033L2.053 8.871a4.74 4.74 0 0 0 .811 1.543zM1.7 5.275l3.81-3.422V.224C3.692.279 1.928 1.647 1.7 5.275zM5.733.224V1.848l3.81 3.423C9.312 1.647 7.548.278 5.733.224z" class="cls-1"/>
                </g>
            </g>
        </g>
    </g>
</svg>
