<svg xmlns="http://www.w3.org/2000/svg" xmlns:xlink="http://www.w3.org/1999/xlink" width="16" height="16" viewBox="0 0 16 16">
  <defs>
    <clipPath id="clip-path">
      <rect id="Rectangle_442" data-name="Rectangle 442" width="16" height="16" transform="translate(889 1458)" fill="#fff" stroke="#707070" stroke-width="1"/>
    </clipPath>
  </defs>
  <g id="Mask_Group_147" data-name="Mask Group 147" transform="translate(-889 -1458)" clip-path="url(#clip-path)">
    <path id="customer-service_1_" data-name="customer-service(1)" d="M16.727,7.273A2.18,2.18,0,0,0,14.9,5.127a6.536,6.536,0,0,0-12.354,0,2.178,2.178,0,0,0,.359,4.327.727.727,0,0,0,.727-.727V7.273a5.091,5.091,0,1,1,6.525,4.884,1.451,1.451,0,0,0-2.888.207v.727A.727.727,0,0,0,8,13.818h.727a6.7,6.7,0,0,0,.815-.048h0a6.5,6.5,0,0,0,3.731-1.792A5.082,5.082,0,0,1,15,14.339a.672.672,0,0,1-.1.619.737.737,0,0,1-.607.315H3.162a.736.736,0,0,1-.606-.315.68.68,0,0,1-.094-.624A5.165,5.165,0,0,1,3.67,12.4a5.227,5.227,0,0,1,.984-.766A.728.728,0,1,0,3.9,10.389a6.776,6.776,0,0,0-1.258.982,6.643,6.643,0,0,0-1.553,2.487A2.118,2.118,0,0,0,1.371,15.8a2.2,2.2,0,0,0,1.79.925H14.295a2.2,2.2,0,0,0,1.79-.925,2.111,2.111,0,0,0,.286-1.937,6.546,6.546,0,0,0-2.166-3.023,6.544,6.544,0,0,0,.7-1.425A2.18,2.18,0,0,0,16.727,7.273Z" transform="translate(888.273 1457.273)" fill="#fff"/>
  </g>
</svg>
