<svg xmlns="http://www.w3.org/2000/svg" viewBox="0 0 30.03 33.09"><defs><style>.cls-1{fill:#a6b049;}</style></defs><title>Asset 1</title><g id="Layer_2" data-name="Layer 2"><g id="Layer_1-2" data-name="Layer 1"><g id="Sản_phẩm_-_Chăm_sóc_Da" data-name="Sản phẩm - Chăm sóc Da"><g id="Component_14_7" data-name="Component 14 7"><path id="Path_111" data-name="Path 111" class="cls-1" d="M30,16.07l0,0h0a4.48,4.48,0,0,0-1.25-.3h-.48A3.76,3.76,0,0,0,27,16a4.47,4.47,0,0,0-2,1.54h-.21a7.2,7.2,0,0,0,1-1.53,7.83,7.83,0,0,0,.34-.79c0-.11.14-.41.2-.61a4.89,4.89,0,0,0,.84-.73,6.11,6.11,0,0,0,1.49-3.67,2.4,2.4,0,0,0,0-.37l-.34,0A5.33,5.33,0,0,0,25,11.53a5.71,5.71,0,0,0-1.22,2.24l-.1.17a7.58,7.58,0,0,1-2.64,3l-.13.4h0c0-.14.09-.27.13-.4a9.79,9.79,0,0,0,.32-3.73,2.25,2.25,0,0,0,.21-.12A4.05,4.05,0,0,0,24,9.73a.19.19,0,0,1,0-.08c0-.14,0-.28,0-.42V9.17a5.9,5.9,0,0,0-.19-1.51h0a.07.07,0,0,0,0,0l0,0v0a5,5,0,0,0-1.28.66l0,0-.31.25-.06,0a4,4,0,0,0-.87,1.14,4.24,4.24,0,0,0-.43,1.64,8.92,8.92,0,0,0,.05,1.37l-.07.05a9.12,9.12,0,0,0-2.52,2.51h0l.07-.1a10.59,10.59,0,0,1,.77-5A5.69,5.69,0,0,0,20,7.7a6.28,6.28,0,0,0-.84-3.88L19,3.51l-.25.25a6.47,6.47,0,0,0-1.26,1.81A6,6,0,0,0,17,7.26a6.15,6.15,0,0,0,0,1.66h0v0a7.66,7.66,0,0,1-.81,1.52l0,0h0l0,.06-.2.28a3.14,3.14,0,0,1-.18-.31,8.24,8.24,0,0,1-.56-1.29l0,0a7.37,7.37,0,0,0,0-8.89C15.18.23,15.1.11,15,0c-.09.11-.16.23-.24.34a7.34,7.34,0,0,0,0,8.89v0a6.71,6.71,0,0,1-.56,1.29l-.17.31-.21-.28,0-.06h0l0,0A7.14,7.14,0,0,1,13,8.94v0h0a5.77,5.77,0,0,0,0-1.66,5.93,5.93,0,0,0-.48-1.69,6.51,6.51,0,0,0-1.27-1.81L11,3.51c-.07.1-.12.21-.18.31A6.22,6.22,0,0,0,10,7.7a6,6,0,0,0,.94,2.5,10.47,10.47,0,0,1,.77,5l.08.1h0A9.12,9.12,0,0,0,9.25,12.8l-.07-.05a8.92,8.92,0,0,0,0-1.37,4.24,4.24,0,0,0-.43-1.64A4.18,4.18,0,0,0,7.93,8.6l-.06,0L7.56,8.3l0,0a5,5,0,0,0-1.28-.66v0l0,0s0,0,0,0h0A6,6,0,0,0,6,9.17v.06a3,3,0,0,0,0,.42.17.17,0,0,0,0,.07A4,4,0,0,0,8.48,13l.22.12A9.8,9.8,0,0,0,9,16.89c0,.13.09.26.13.4h0c0-.14-.09-.27-.13-.4a7.81,7.81,0,0,1-2.64-3l-.09-.17a5.54,5.54,0,0,0-1.23-2.24A5.33,5.33,0,0,0,1.68,9.85a1.86,1.86,0,0,0-.34,0c0,.12,0,.24,0,.37a6.17,6.17,0,0,0,1.49,3.67,5.37,5.37,0,0,0,.85.73c.06.2.16.5.2.61a7.75,7.75,0,0,0,.33.79,7.89,7.89,0,0,0,1,1.53H5.06A4.51,4.51,0,0,0,3,16a4.26,4.26,0,0,0-1.28-.23H1.69l-.36,0H1.28A4.84,4.84,0,0,0,0,16H0s0,0,0,0H0a5.2,5.2,0,0,0,.83,1l0,0,.28.24.06,0A4.06,4.06,0,0,0,5,18.15H5l.31,0h0l.06,0a9.57,9.57,0,0,1,2.28,1.31,9.08,9.08,0,0,1-5,.92H2.61a1.29,1.29,0,0,0,.35.18,2.66,2.66,0,0,0,.49.1A7.72,7.72,0,0,0,7,20.31l.46-.11a4.58,4.58,0,0,1,.53,0,6.29,6.29,0,0,1,6,5.17c0,.35.07.7.1,1.05h0c0,2.17,0,4.53-.06,5.49A1.09,1.09,0,0,1,13.31,33l0,.13A8,8,0,0,1,15,33a7.2,7.2,0,0,1,1.67.13l0-.13A1.12,1.12,0,0,1,16,31.88c0-.87,0-3.33-.05-5.49h0c0-.35.06-.7.1-1.05a6.29,6.29,0,0,1,6-5.17,4.58,4.58,0,0,1,.53,0l.46.11a7.72,7.72,0,0,0,3.57.31,2.66,2.66,0,0,0,.49-.1,1.29,1.29,0,0,0,.35-.18h-.07a9.08,9.08,0,0,1-5-.92,9.57,9.57,0,0,1,2.28-1.31l.06,0h0l.31,0h0a4.06,4.06,0,0,0,3.77-.68l.06,0,.28-.24,0,0a5.2,5.2,0,0,0,.83-1h0S30,16.08,30,16.07ZM15,9.57a4.62,4.62,0,0,1,.2,4,.14.14,0,0,1,0,.06L15,14c-.06-.12-.12-.24-.17-.36l0-.06a4.66,4.66,0,0,1,.2-4ZM4.6,15.77c-.09-.19-.17-.38-.25-.57l-.1-.28a5.51,5.51,0,0,0,1.37.51h0a7,7,0,0,1,4,3.36c.09.19.17.37.25.57A6.44,6.44,0,0,1,4.6,15.77Zm8.32,5.9a8.59,8.59,0,0,1-2.1-2.11,9.18,9.18,0,0,1-1.21-2.4,9.44,9.44,0,0,1-.48-3c0-.27,0-.54,0-.8A9.13,9.13,0,0,1,13,20.87a7,7,0,0,1,0,.8Zm-.87-7.74a8.28,8.28,0,0,1,.82-4.1,8.1,8.1,0,0,1,1.27,4,8.28,8.28,0,0,1-.82,4.1,8.31,8.31,0,0,1-1.27-4Zm3.26,10.7a2.56,2.56,0,0,1-.11.24l-.08.16-.11.19-.1-.19a1.19,1.19,0,0,0-.08-.16,2.56,2.56,0,0,1-.11-.24,10.82,10.82,0,0,1-1-4.65,11,11,0,0,1,.26-2.35l0-.12c0-.21.1-.41.17-.62a.31.31,0,0,1,0-.08,11.35,11.35,0,0,1,.83-2v0l0-.06a.21.21,0,0,0,0,.06v0a10.64,10.64,0,0,1,.83,2l0,.08c.06.2.11.41.16.62l0,.12a11,11,0,0,1-.78,7Zm.58-10.83a8.34,8.34,0,0,1,1.27-4,8.32,8.32,0,0,1,.82,4.1,8.13,8.13,0,0,1-1.27,4A8.32,8.32,0,0,1,15.89,13.8Zm1.23,7.87a7,7,0,0,1,0-.8,9.11,9.11,0,0,1,3.78-7.49c0,.26,0,.53,0,.8a9.48,9.48,0,0,1-.48,3,9.18,9.18,0,0,1-1.21,2.4,8.59,8.59,0,0,1-2.1,2.11Zm3-2.31c.08-.19.16-.38.25-.57a7,7,0,0,1,4-3.36h0a5.51,5.51,0,0,0,1.37-.51l-.1.28c-.08.19-.16.38-.25.57a6.41,6.41,0,0,1-5.28,3.59Z"/></g></g></g></g></svg>