<svg xmlns="http://www.w3.org/2000/svg" xmlns:xlink="http://www.w3.org/1999/xlink" width="16" height="16" viewBox="0 0 16 16">
  <defs>
    <clipPath id="clip-path">
      <rect id="Rectangle_4" data-name="Rectangle 4" width="16" height="16" transform="translate(1419 85)" fill="#fff" stroke="#707070" stroke-width="1"/>
    </clipPath>
  </defs>
  <g id="Mask_Group_8" data-name="Mask Group 8" transform="translate(-1419 -85)" clip-path="url(#clip-path)">
    <g id="maps-and-location" transform="translate(1418.272 84.274)">
      <path id="Path_11" data-name="Path 11" d="M12.886,2.217A6.543,6.543,0,1,0,4.744,12.46,11.091,11.091,0,0,1,7.6,15.527l.509.847a.727.727,0,0,0,1.247,0l.488-.813a9.251,9.251,0,0,1,2.6-2.909,6.538,6.538,0,0,0,.445-10.438Zm-1.271,9.241a10.516,10.516,0,0,0-2.888,3.133,12.669,12.669,0,0,0-3.1-3.285A5.087,5.087,0,0,1,7.69,2.283a5.36,5.36,0,0,1,1.023-.1,5.085,5.085,0,0,1,2.9,9.275Z" fill="#fff"/>
      <path id="Path_12" data-name="Path 12" d="M8.727,4.364a2.909,2.909,0,1,0,2.909,2.909A2.909,2.909,0,0,0,8.727,4.364Zm0,4.364a1.455,1.455,0,1,1,1.455-1.455A1.455,1.455,0,0,1,8.727,8.727Z" fill="#fff"/>
    </g>
  </g>
</svg>
