<svg xmlns="http://www.w3.org/2000/svg" viewBox="0 0 210 119.01"><defs><style>.cls-1{fill:#fff;}</style></defs><title>Asset 2</title><g id="Layer_2" data-name="Layer 2"><g id="Layer_1-2" data-name="Layer 1"><g id="Sản_phẩm_-_Chăm_sóc_Da_Chi_tiết_Thêm_vào_giỏ_hàng" data-name="Sản phẩm - Chăm sóc Da Chi tiết Thêm vào giỏ hàng"><g id="Component_11_5" data-name="Component 11 5"><g id="Group_252" data-name="Group 252"><g id="Group_251" data-name="Group 251"><g id="Group_235" data-name="Group 235"><g id="Group_234" data-name="Group 234"><path id="Path_78" data-name="Path 78" class="cls-1" d="M12,60.19c-3.81,0-8-1.35-10.14-3.07L.9,52.6l.43-.18a12.63,12.63,0,0,0,10.78,6.42c4.88,0,8.26-2.75,8.26-6.66,0-4.32-4.4-6-9-7.72-4.78-1.77-9.66-3.54-9.66-8.28,0-5.49,4.88-8.38,10.89-8.38,4.08,0,6.87.89,8.8,2.42l.48,3.86-.21.24c-2.2-3.86-5.58-5.12-9.39-5.12-4.08,0-7.13,2-7.13,5.35,0,3.77,4,5.07,8.37,6.7,5.1,1.72,10.56,3.82,10.56,9.91C24.13,56.74,18.39,60.19,12,60.19Z"/><path id="Path_79" data-name="Path 79" class="cls-1" d="M66.29,59.44a34.41,34.41,0,0,0-3.8-.18,33.69,33.69,0,0,0-3.76.18l-.11-.18a2.14,2.14,0,0,0,1.72-2c.16-3,.11-6,.11-13.08H37.75c0,7.07,0,10.1.11,13.08a2.3,2.3,0,0,0,1.66,2l-.05.18a33.62,33.62,0,0,0-3.75-.18,34.47,34.47,0,0,0-3.81.18l-.06-.18a2.31,2.31,0,0,0,1.67-2c.16-3,.1-6,.1-13.26s.06-10.33-.1-13.31a2.07,2.07,0,0,0-1.67-2l.06-.23a21.09,21.09,0,0,0,3.81.23,18.86,18.86,0,0,0,3.75-.23l.05.23a2.07,2.07,0,0,0-1.66,2c-.16,2.88-.11,5.72-.11,12.14h22.7c0-6.42,0-9.26-.11-12.14a2.05,2.05,0,0,0-1.72-2l.11-.23a18.91,18.91,0,0,0,3.76.23,19.31,19.31,0,0,0,3.8-.23l.06.23a2.06,2.06,0,0,0-1.61,2c-.27,3-.16,6.1-.16,13.31s-.11,10.23.16,13.26a2,2,0,0,0,1.61,2Z"/></g></g><g id="Group_236" data-name="Group 236"><path id="Path_80" data-name="Path 80" class="cls-1" d="M7.52,116.2a.32.32,0,0,1-.12.26.48.48,0,0,1-.29.1H6.23a.51.51,0,0,1-.46-.2l-4.39-7.24s0,0,0,0,0,0,0,0v7.2a.2.2,0,0,1-.07.16.26.26,0,0,1-.18.07H.33c-.17,0-.26,0-.26-.15v-8.66a.33.33,0,0,1,.12-.25.45.45,0,0,1,.29-.1h.79a1,1,0,0,1,.39,0,.52.52,0,0,1,.19.2l4.37,7.2,0,0a.06.06,0,0,0,0,0v-7.21a.23.23,0,0,1,.07-.17.32.32,0,0,1,.19-.07h.75a.26.26,0,0,1,.18.07.21.21,0,0,1,.07.17Z"/><path id="Path_81" data-name="Path 81" class="cls-1" d="M17.55,116.09a.26.26,0,0,1-.22.28,10.52,10.52,0,0,1-1.12.21,10.86,10.86,0,0,1-1.28.07,4.47,4.47,0,0,1-2.38-.49,1.72,1.72,0,0,1-.73-1.55v-.11a1.78,1.78,0,0,1,.34-1.13,2,2,0,0,1,1.09-.65,7.43,7.43,0,0,1,2-.21H16.3V112a1.4,1.4,0,0,0-.34-1.07,1.82,1.82,0,0,0-1.18-.3,6.71,6.71,0,0,0-1.1.08c-.31,0-.67.13-1.07.23a.29.29,0,0,1-.24,0,.13.13,0,0,1-.09-.15v-.48c0-.1.06-.17.2-.22a6.49,6.49,0,0,1,1-.26,6,6,0,0,1,1.34-.14c1.85,0,2.77.77,2.77,2.32Zm-1.25-.4v-2.4H15.24a7.59,7.59,0,0,0-1.07.07,2,2,0,0,0-.65.2,1,1,0,0,0-.34.37,1.54,1.54,0,0,0-.1.56v.11a1.41,1.41,0,0,0,.16.7.88.88,0,0,0,.56.38,3.6,3.6,0,0,0,1.13.12h.55l.47,0,.34-.07Z"/><path id="Path_82" data-name="Path 82" class="cls-1" d="M26.22,116.37c0,.12-.08.19-.26.21a7,7,0,0,1-.92.06,2.44,2.44,0,0,1-1.49-.34,1.58,1.58,0,0,1-.44-1.31v-4.3l-1.38-.13c-.18,0-.27-.09-.27-.22V110c0-.15.09-.22.27-.22h1.38v-1.21c0-.13.08-.22.25-.24l.74-.1h0a.18.18,0,0,1,.16,0,.22.22,0,0,1,.06.15v1.35h1.53a.27.27,0,0,1,.2.07.21.21,0,0,1,.09.18v.41a.24.24,0,0,1-.09.18.37.37,0,0,1-.2.07H24.36V115a.84.84,0,0,0,.16.63.92.92,0,0,0,.6.15h.8c.2,0,.3,0,.3.17Z"/><path id="Path_83" data-name="Path 83" class="cls-1" d="M30.13,114.07v-4a.25.25,0,0,1,.08-.18.31.31,0,0,1,.2-.07h.68a.27.27,0,0,1,.2.07.21.21,0,0,1,.09.18v4a1.74,1.74,0,0,0,.38,1.28,1.79,1.79,0,0,0,1.26.37,6.4,6.4,0,0,0,.88-.06c.37,0,.69-.1,1-.16V110a.25.25,0,0,1,.08-.18.31.31,0,0,1,.21-.07h.69a.31.31,0,0,1,.2.07.21.21,0,0,1,.07.18V116a.29.29,0,0,1-.25.3,13.94,13.94,0,0,1-3,.38,3.92,3.92,0,0,1-1.66-.3,1.72,1.72,0,0,1-.87-.87A3.42,3.42,0,0,1,30.13,114.07Z"/><path id="Path_84" data-name="Path 84" class="cls-1" d="M43.47,109.68a5.16,5.16,0,0,1,1,.06.28.28,0,0,1,.2.08.27.27,0,0,1,0,.18v.44a.25.25,0,0,1-.06.17.31.31,0,0,1-.21,0l-.94,0a8,8,0,0,0-1.69.18v5.5a.28.28,0,0,1-.09.18.31.31,0,0,1-.2.07h-.7a.24.24,0,0,1-.18-.07.21.21,0,0,1-.09-.18v-6a.3.3,0,0,1,.26-.3,14.46,14.46,0,0,1,1.46-.28A8.28,8.28,0,0,1,43.47,109.68Z"/><path id="Path_85" data-name="Path 85" class="cls-1" d="M54,116.09a.25.25,0,0,1-.21.28,9.27,9.27,0,0,1-2.4.28,4.5,4.5,0,0,1-2.39-.49,1.71,1.71,0,0,1-.72-1.55v-.11a1.83,1.83,0,0,1,.33-1.13,2,2,0,0,1,1.09-.65,7.52,7.52,0,0,1,2-.21h1.06V112a1.4,1.4,0,0,0-.34-1.07,1.84,1.84,0,0,0-1.18-.3,6.91,6.91,0,0,0-1.11.08c-.31,0-.66.13-1.07.23a.29.29,0,0,1-.24,0,.16.16,0,0,1-.09-.15v-.48c0-.1.07-.17.2-.22a6.62,6.62,0,0,1,1-.26,6,6,0,0,1,1.33-.14c1.85,0,2.77.77,2.77,2.32Zm-1.25-.4v-2.4H51.72a7.83,7.83,0,0,0-1.08.07,2.07,2.07,0,0,0-.64.2.86.86,0,0,0-.34.37,1.35,1.35,0,0,0-.1.56v.11a1.31,1.31,0,0,0,.16.7.88.88,0,0,0,.56.38,3.6,3.6,0,0,0,1.13.12H52l.48,0,.34-.07Z"/><path id="Path_86" data-name="Path 86" class="cls-1" d="M59.8,116.31a.29.29,0,0,1-.07.18.26.26,0,0,1-.19.07h-.73a.26.26,0,0,1-.19-.07.24.24,0,0,1-.07-.18v-8.79a.2.2,0,0,1,.07-.16.22.22,0,0,1,.19-.07h.73a.26.26,0,0,1,.19.06.23.23,0,0,1,.07.17Z"/><path id="Path_87" data-name="Path 87" class="cls-1" d="M77.47,110.15q0,2.76-4,2.76c-.33,0-.8,0-1.43-.06v3.46a.21.21,0,0,1-.07.18.24.24,0,0,1-.18.07H71a.26.26,0,0,1-.19-.07.29.29,0,0,1-.07-.18v-8.59c0-.18.12-.29.34-.31a22.71,22.71,0,0,1,2.36-.1,7.85,7.85,0,0,1,2.1.26,2.8,2.8,0,0,1,1.39.87,2.36,2.36,0,0,1,.5,1.54Zm-1.3,0V110a1.43,1.43,0,0,0-.64-1.32,4,4,0,0,0-2-.4c-.49,0-1,0-1.42,0v3.61h.26l.38,0h.79a5.06,5.06,0,0,0,1.55-.18,1.55,1.55,0,0,0,.87-.59,1.85,1.85,0,0,0,.26-1Z"/><path id="Path_88" data-name="Path 88" class="cls-1" d="M87.59,116.31a.21.21,0,0,1-.09.18.32.32,0,0,1-.19.07h-.68a.32.32,0,0,1-.2-.07.23.23,0,0,1-.09-.18v-4.06A1.64,1.64,0,0,0,86,111a1.6,1.6,0,0,0-1.13-.36,6.25,6.25,0,0,0-1,.09,4.23,4.23,0,0,0-1,.25v5.33a.22.22,0,0,1-.09.17.3.3,0,0,1-.2.08h-.69a.32.32,0,0,1-.19-.07.25.25,0,0,1-.08-.18v-8.78a.19.19,0,0,1,.07-.17.25.25,0,0,1,.2-.07h.7a.24.24,0,0,1,.2.07.23.23,0,0,1,.08.17v2.54a5.74,5.74,0,0,1,1.08-.29,7.89,7.89,0,0,1,1.09-.1,3.32,3.32,0,0,1,1.35.27,2,2,0,0,1,.9.85,3.17,3.17,0,0,1,.32,1.45Z"/><path id="Path_89" data-name="Path 89" class="cls-1" d="M98.15,110a.13.13,0,0,1,0,.09l-2.34,7.1a3.91,3.91,0,0,1-.52,1.09,1.71,1.71,0,0,1-.78.57,4.09,4.09,0,0,1-1.3.18,6.11,6.11,0,0,1-1.2-.12c-.2,0-.3-.11-.3-.2v-.45c0-.13.09-.2.27-.2H92c.62,0,1,.07,1.26.07a1.68,1.68,0,0,0,.93-.21,1.46,1.46,0,0,0,.48-.84l.14-.5h-.2a1.13,1.13,0,0,1-.62-.16,1.36,1.36,0,0,1-.43-.69l-1.89-5.64a.14.14,0,0,1,0-.09c0-.13.08-.2.25-.2h.78a.2.2,0,0,1,.15.06.22.22,0,0,1,.09.13l1.68,5.36c.06.18.14.27.27.27h.23L96.85,110a.26.26,0,0,1,.1-.13.35.35,0,0,1,.18,0h.8C98.07,109.78,98.15,109.85,98.15,110Z"/><path id="Path_90" data-name="Path 90" class="cls-1" d="M106.5,116.37c0,.12-.09.19-.26.21a7.11,7.11,0,0,1-.92.06,2.44,2.44,0,0,1-1.49-.34,1.55,1.55,0,0,1-.44-1.31v-4.3l-1.39-.13c-.18,0-.27-.09-.27-.22V110c0-.15.09-.22.27-.22h1.39v-1.21c0-.13.08-.22.25-.24l.74-.1h0a.19.19,0,0,1,.16,0,.22.22,0,0,1,.06.15v1.35h1.53a.31.31,0,0,1,.2.07.23.23,0,0,1,.08.18v.41a.21.21,0,0,1-.09.18.32.32,0,0,1-.19.07h-1.53V115a.8.8,0,0,0,.16.63.89.89,0,0,0,.6.15h.8c.2,0,.3,0,.3.17Z"/><path id="Path_91" data-name="Path 91" class="cls-1" d="M116.52,113.64a2.92,2.92,0,0,1-.82,2.19,3.8,3.8,0,0,1-4.69,0,3,3,0,0,1-.82-2.19v-.94a3,3,0,0,1,.82-2.2,3.8,3.8,0,0,1,4.69,0,2.94,2.94,0,0,1,.82,2.2Zm-1.25,0v-.94a2.6,2.6,0,0,0-.21-1.1,1.45,1.45,0,0,0-.63-.71,2.23,2.23,0,0,0-1.08-.25,1.82,1.82,0,0,0-1.43.54,2.22,2.22,0,0,0-.47,1.52v.94c0,1.37.63,2.06,1.9,2.06a1.79,1.79,0,0,0,1.44-.54A2.15,2.15,0,0,0,115.27,113.64Z"/><path id="Path_92" data-name="Path 92" class="cls-1" d="M127,112.84v-1.72a3.6,3.6,0,0,1,1.07-2.94,4.18,4.18,0,0,1,2.72-.87,5.29,5.29,0,0,1,.9.08,8.29,8.29,0,0,1,.86.21,4.62,4.62,0,0,1,.62.23.24.24,0,0,1,.15.2v.6a.12.12,0,0,1-.07.11.28.28,0,0,1-.18,0,9.85,9.85,0,0,0-1.07-.27,6.16,6.16,0,0,0-1.2-.15c-1.67,0-2.5.93-2.5,2.8v1.7a3.62,3.62,0,0,0,.31,1.65,1.92,1.92,0,0,0,.87.89,3,3,0,0,0,1.31.27,8,8,0,0,0,2.28-.42.28.28,0,0,1,.18,0,.12.12,0,0,1,.07.11v.61a.22.22,0,0,1-.15.19,3.56,3.56,0,0,1-.62.23,6.31,6.31,0,0,1-.86.2,4.43,4.43,0,0,1-.9.09,4.18,4.18,0,0,1-2.72-.87A3.56,3.56,0,0,1,127,112.84Z"/><path id="Path_93" data-name="Path 93" class="cls-1" d="M143.49,113.64a3,3,0,0,1-.82,2.19,3.77,3.77,0,0,1-4.69,0,3,3,0,0,1-.82-2.19v-.94a3,3,0,0,1,.82-2.2,3.8,3.8,0,0,1,4.69,0,3,3,0,0,1,.82,2.2Zm-1.25,0v-.94a2.6,2.6,0,0,0-.21-1.1,1.45,1.45,0,0,0-.63-.71,2.23,2.23,0,0,0-1.08-.25,1.82,1.82,0,0,0-1.43.54,2.27,2.27,0,0,0-.48,1.52v.94c0,1.37.64,2.06,1.91,2.06a1.79,1.79,0,0,0,1.44-.54A2.15,2.15,0,0,0,142.24,113.64Z"/><path id="Path_94" data-name="Path 94" class="cls-1" d="M149.87,115.72c1,0,1.55-.31,1.55-.94a.64.64,0,0,0-.22-.49,3.51,3.51,0,0,0-.84-.48l-1.44-.64a3,3,0,0,1-1.08-.76,1.53,1.53,0,0,1-.37-1,1.36,1.36,0,0,1,.38-1,2.11,2.11,0,0,1,1-.52,6.07,6.07,0,0,1,1.35-.15,6.2,6.2,0,0,1,1.14.11,3.07,3.07,0,0,1,.85.24l.15.09a.14.14,0,0,1,0,.12v.51a.16.16,0,0,1-.08.16.33.33,0,0,1-.24,0,5.86,5.86,0,0,0-.92-.22,7.47,7.47,0,0,0-.94-.09,3.26,3.26,0,0,0-1.07.15.58.58,0,0,0-.4.6.72.72,0,0,0,.23.53,2.88,2.88,0,0,0,.75.45l1.41.63a4.4,4.4,0,0,1,.94.54,1.73,1.73,0,0,1,.48.56,1.4,1.4,0,0,1,.14.66,1.6,1.6,0,0,1-.36,1.07,2.18,2.18,0,0,1-1,.64,4.75,4.75,0,0,1-1.45.2,6.21,6.21,0,0,1-1.21-.12,5.09,5.09,0,0,1-.92-.27c-.13-.06-.2-.13-.2-.22v-.51a.19.19,0,0,1,.09-.16.25.25,0,0,1,.24,0A6.2,6.2,0,0,0,149.87,115.72Z"/><path id="Path_95" data-name="Path 95" class="cls-1" d="M156.87,116.31v-5.94a.28.28,0,0,1,.25-.3c.62-.13,1.15-.23,1.6-.29a8.9,8.9,0,0,1,1.26-.09,3.79,3.79,0,0,1,.94.12,1.58,1.58,0,0,1,.7.37,6.12,6.12,0,0,1,2.36-.5,3.05,3.05,0,0,1,1.19.21,1.77,1.77,0,0,1,.81.72,2.69,2.69,0,0,1,.3,1.34v4.36a.21.21,0,0,1-.09.18.32.32,0,0,1-.2.07h-.68a.32.32,0,0,1-.19-.07.21.21,0,0,1-.09-.18V112a1.34,1.34,0,0,0-.34-1,1.42,1.42,0,0,0-.95-.3,5.57,5.57,0,0,0-1.67.33,3.2,3.2,0,0,1,.13,1v4.39a.23.23,0,0,1-.07.17.21.21,0,0,1-.18.07h-.76a.18.18,0,0,1-.17-.07.19.19,0,0,1-.07-.17v-4.39a2.16,2.16,0,0,0-.12-.8.71.71,0,0,0-.35-.39,1.67,1.67,0,0,0-.63-.1,7.8,7.8,0,0,0-1.73.21v5.47a.24.24,0,0,1-.26.25h-.75a.21.21,0,0,1-.17-.07A.24.24,0,0,1,156.87,116.31Z"/><path id="Path_96" data-name="Path 96" class="cls-1" d="M173.7,115.69a5.82,5.82,0,0,0,.93-.07c.3-.06.59-.13.88-.21l.7-.22a.29.29,0,0,1,.24,0,.16.16,0,0,1,.09.16v.51c0,.08-.06.16-.19.22a6.38,6.38,0,0,1-2.65.57,4.4,4.4,0,0,1-1.61-.28,2.33,2.33,0,0,1-1.17-.93,3.06,3.06,0,0,1-.45-1.75v-1.11a2.74,2.74,0,0,1,.83-2.11,3.32,3.32,0,0,1,2.33-.78,3.87,3.87,0,0,1,1.71.36,2.35,2.35,0,0,1,1.06,1,3.1,3.1,0,0,1,.36,1.52v.67a.24.24,0,0,1-.21.27h-4.83v.17a1.73,1.73,0,0,0,1.37,2,1.57,1.57,0,0,0,.61,0Zm1.79-3v-.11a2.8,2.8,0,0,0-.2-1.11,1.31,1.31,0,0,0-.62-.63,2.32,2.32,0,0,0-1-.19,1.69,1.69,0,0,0-1.91,1.45,1.93,1.93,0,0,0,0,.48v.11Z"/><path id="Path_97" data-name="Path 97" class="cls-1" d="M185.24,116.37c0,.12-.09.19-.26.21a7,7,0,0,1-.92.06,2.44,2.44,0,0,1-1.49-.34,1.58,1.58,0,0,1-.44-1.31v-4.3l-1.38-.13c-.18,0-.27-.09-.27-.22V110c0-.15.09-.22.27-.22h1.38v-1.21c0-.13.08-.22.25-.24l.74-.1h0a.18.18,0,0,1,.16,0,.22.22,0,0,1,.06.15v1.35h1.53a.27.27,0,0,1,.2.07.21.21,0,0,1,.08.18v.41a.19.19,0,0,1-.09.18.32.32,0,0,1-.19.07h-1.53V115a.88.88,0,0,0,.16.63.92.92,0,0,0,.6.15h.8c.2,0,.3,0,.3.17Z"/><path id="Path_98" data-name="Path 98" class="cls-1" d="M190.56,108.44a.21.21,0,0,1-.09.18.31.31,0,0,1-.2.07h-.72a.32.32,0,0,1-.2-.07.31.31,0,0,1-.09-.18v-1a.23.23,0,0,1,.08-.17.32.32,0,0,1,.21-.08h.72a.31.31,0,0,1,.21.07.25.25,0,0,1,.08.18Zm0,7.87a.21.21,0,0,1-.09.18.27.27,0,0,1-.2.07h-.68a.37.37,0,0,1-.2-.07.28.28,0,0,1-.09-.18V110a.24.24,0,0,1,.09-.18.27.27,0,0,1,.2-.07h.68a.28.28,0,0,1,.21.07.2.2,0,0,1,.07.18Z"/><path id="Path_99" data-name="Path 99" class="cls-1" d="M197.89,116.64a3.84,3.84,0,0,1-1.3-.2,2.6,2.6,0,0,1-1-.6,2.55,2.55,0,0,1-.58-.94,3.75,3.75,0,0,1-.18-1.25v-1a3.51,3.51,0,0,1,.33-1.6,2.33,2.33,0,0,1,1-1,3.6,3.6,0,0,1,1.67-.36,4.53,4.53,0,0,1,1.1.13,3,3,0,0,1,.77.25.39.39,0,0,1,.16.1.26.26,0,0,1,0,.15v.44c0,.17-.11.23-.33.16a6,6,0,0,0-1.73-.28c-1.19,0-1.78.68-1.78,2v1a2.25,2.25,0,0,0,.45,1.53,1.71,1.71,0,0,0,1.33.52,6,6,0,0,0,1.73-.29c.22-.06.33,0,.33.16V116a.26.26,0,0,1,0,.15.39.39,0,0,1-.16.1,3.55,3.55,0,0,1-.78.25A4,4,0,0,1,197.89,116.64Z"/><path id="Path_100" data-name="Path 100" class="cls-1" d="M206.28,115.72c1,0,1.55-.31,1.55-.94a.64.64,0,0,0-.22-.49,3.51,3.51,0,0,0-.84-.48l-1.44-.64a3,3,0,0,1-1.08-.76,1.53,1.53,0,0,1-.37-1,1.36,1.36,0,0,1,.38-1,2.08,2.08,0,0,1,1-.52,6.21,6.21,0,0,1,1.35-.15,6.31,6.31,0,0,1,1.15.11,3.28,3.28,0,0,1,.85.24l.15.09a.14.14,0,0,1,0,.12v.51a.17.17,0,0,1-.09.16.33.33,0,0,1-.24,0,5.61,5.61,0,0,0-.92-.22,7.3,7.3,0,0,0-.94-.09,3.16,3.16,0,0,0-1.06.15.56.56,0,0,0-.4.6.68.68,0,0,0,.23.53,2.58,2.58,0,0,0,.75.45l1.41.63a4.34,4.34,0,0,1,.93.54,1.76,1.76,0,0,1,.49.56,1.7,1.7,0,0,1,.14.66,1.65,1.65,0,0,1-.36,1.07,2.21,2.21,0,0,1-1,.64,4.64,4.64,0,0,1-1.44.2,6.13,6.13,0,0,1-1.21-.12,4.86,4.86,0,0,1-.92-.27c-.14-.06-.2-.13-.2-.22v-.51a.17.17,0,0,1,.09-.16.25.25,0,0,1,.24,0A6.2,6.2,0,0,0,206.28,115.72Z"/></g><g id="Group_238" data-name="Group 238"><g id="Group_237" data-name="Group 237"><path id="Path_101" data-name="Path 101" class="cls-1" d="M150.4,60.37c-3.81,0-8-1.35-10.14-3.07l-.91-4.51.43-.19A12.63,12.63,0,0,0,150.56,59c4.88,0,8.26-2.74,8.26-6.65,0-4.33-4.4-6-9-7.73-4.77-1.76-9.65-3.53-9.65-8.28,0-5.49,4.88-8.37,10.89-8.37,4.07,0,6.86.88,8.8,2.42l.48,3.86-.21.23c-2.2-3.86-5.58-5.12-9.39-5.12-4.08,0-7.14,2-7.14,5.36,0,3.76,4,5.07,8.37,6.7,5.1,1.72,10.57,3.81,10.57,9.91C162.58,56.93,156.84,60.37,150.4,60.37Z"/><path id="Path_102" data-name="Path 102" class="cls-1" d="M190.74,60.37c-10.41,0-19.31-6.33-19.31-16.19S180.33,28,190.74,28,210,34.31,210,44.18,201.1,60.37,190.74,60.37Zm0-31c-8,0-14.8,5.63-14.8,14.8S182.75,59,190.74,59s14.7-5.63,14.7-14.8S198.68,29.38,190.74,29.38Z"/></g></g><path id="Path_103" data-name="Path 103" class="cls-1" d="M9.07,94.31c-2.74,0-7.35,0-9.07-.18v-.19a1.67,1.67,0,0,0,1.61-1.73v-.08c.16-3,.11-6,.11-13.26s.05-10.33-.11-13.31C1.55,64.26.86,63.84,0,63.79V63.6c1.77-.14,5.2-.18,6.06-.18,9.39,0,14.27,2.79,14.27,7.21,0,4.09-4.66,6.89-9.33,7,8,0,13.89,2.55,13.89,8.18S17.65,94.31,9.07,94.31ZM6,64.63c-.16,2.79-.11,6.51-.11,12.65h1c5.63,0,9.12-2.14,9.12-6.65C16,66.3,12,64.63,6,64.63ZM9.55,78.45a34.18,34.18,0,0,0-3.65.18v.75c0,7.26-.05,10.75.11,13.77.64,0,1.28,0,1.87,0,8,0,12.61-2.47,12.61-7.35s-3.64-7.4-10.94-7.4Z"/><path id="Path_104" data-name="Path 104" class="cls-1" d="M57.41,90.5a27.4,27.4,0,0,0-1.93,3.63H35.79a33.62,33.62,0,0,0-3.75.18L32,94.13a2.51,2.51,0,0,0,1.66-2c.16-3,.11-6,.11-13.26s.05-10.33-.11-13.31a2,2,0,0,0-1.66-2l.05-.24a19.64,19.64,0,0,0,3.75.24H53.66A17.94,17.94,0,0,0,55,67.23l-.27.24c-2.74-2.19-7-2.89-12.39-2.89-1.35,0-2.79,0-4.3.09-.16,3.73-.1,6.7-.1,13.22,12-.14,12.6-.37,13.2-2l.26,0a9.66,9.66,0,0,0-.26,2.46,8.94,8.94,0,0,0,.26,2.42l-.26.14c-.75-1.63-1.29-2-13.2-2V79c0,7.16-.06,11,.1,14,1.45,0,2.9,0,4.35,0,5.9,0,11.43-.6,14.81-2.79Z"/><path id="Path_105" data-name="Path 105" class="cls-1" d="M99.1,94.31a42.3,42.3,0,0,0-4.24-.18c-1,0-3.76,0-4.61.18l-.06-.18c1.34-.51,1.77-1.21,1.4-2-1-2.1-2.1-4.14-4.08-7.68H70.07c-1.87,3.54-2.84,5.49-3.86,7.68-.37.79.11,1.49,1.45,2l0,.18a20.94,20.94,0,0,0-3.06-.18,23.08,23.08,0,0,0-3.11.18l-.11-.18a4.64,4.64,0,0,0,2.9-2.42c1.88-3,3.22-5.4,7.08-12.43s7-13.07,8.53-16.05h.75c1.4,2.93,4.67,8.94,8.53,16.05s5,9.12,6.87,12.1a6.32,6.32,0,0,0,3.17,2.75ZM86.81,83.19c-.59-1.16-1.29-2.46-2.09-3.91-3.7-6.93-4.3-8.23-6-11.3-1.72,3.07-2.79,5.44-6,11.3-.8,1.49-1.5,2.75-2.09,3.91Z"/><path id="Path_106" data-name="Path 106" class="cls-1" d="M133.18,63.61a2,2,0,0,0-1.61,2c-.16,3-.16,9.35-.16,16.56,0,8.66-6.07,12.94-13.58,12.94-8.31,0-15.12-3.4-15.12-12.47,0-7.21.05-14-.11-17a2,2,0,0,0-1.66-2l0-.24a21.09,21.09,0,0,0,3.81.24,19.64,19.64,0,0,0,3.75-.24l.06.24a2,2,0,0,0-1.67,2c-.16,3-.1,9.82-.1,17s4.23,10.56,11.7,10.56c6.92,0,11.48-3.91,11.48-11,0-8.51-.11-13.54-.16-16.56a2.06,2.06,0,0,0-1.72-2l.05-.24a11.37,11.37,0,0,0,2.47.24,10.25,10.25,0,0,0,2.47-.24Z"/><path id="Path_107" data-name="Path 107" class="cls-1" d="M169.24,67.47c-3.65-2.28-7.94-2.8-13.09-2.75V78.87c0,7.3-.05,10.23.11,13.26.05.88.59,1.53,1.71,2l-.1.18a33.69,33.69,0,0,0-3.76-.18,34.7,34.7,0,0,0-3.81.18l-.05-.18c1.12-.52,1.66-1.08,1.72-2,.16-3,.1-6,.1-13.26V64.72c-5.1,0-9.5.56-13.14,2.75l-.27-.19A29.14,29.14,0,0,0,140,63.6h28.27a29,29,0,0,0,1.29,3.63Z"/><path id="Path_108" data-name="Path 108" class="cls-1" d="M209,63.61A7.76,7.76,0,0,0,205.71,66c-2.42,2.74-3,3.72-7.08,8.37l-4.51,5.35c0,7.35-.05,9.4.11,12.38.05.88.59,1.53,1.72,2l-.11.18a33.69,33.69,0,0,0-3.76-.18,34.7,34.7,0,0,0-3.81.18l-.05-.18c1.13-.51,1.61-1.07,1.61-2C190,89.24,190,87,190,80l-4.72-5.58c-3.92-4.65-5.15-6.33-6.71-8.05-1-1.26-2.25-2.51-3.27-2.75l.11-.23a24.37,24.37,0,0,0,4.18.23,35.39,35.39,0,0,0,5.15-.23l.06.23c-1.56.52-2,1-1.5,1.77a112.63,112.63,0,0,0,7.13,9l3.22,3.95c1-1.25,1.93-2.46,3.38-4.09,3.16-3.77,4.18-5,7-8.75.59-.84.17-1.49-1.28-1.91l.05-.23a18.86,18.86,0,0,0,3.27.23,14.81,14.81,0,0,0,2.9-.23Z"/><path id="Path_109" data-name="Path 109" class="cls-1" d="M121.26,28.67c.11-.26.23-.52.32-.78C121.49,28.15,121.37,28.41,121.26,28.67Z"/><path id="Path_110" data-name="Path 110" class="cls-1" d="M138.35,28.86l-.08,0h0a12.73,12.73,0,0,0-2.79-.53h-.1l-.81,0h-.16a11,11,0,0,0-2.86.41A10,10,0,0,0,127,31.45l0,0-.49,0a12.93,12.93,0,0,0,2.3-2.75,11.86,11.86,0,0,0,.75-1.41c.09-.2.32-.74.46-1.09A11.23,11.23,0,0,0,132,24.87a10,10,0,0,0,3.34-6.6c0-.22.05-.44.06-.66-.26,0-.51,0-.76.07a13.08,13.08,0,0,0-7.54,3,9.93,9.93,0,0,0-2.74,4l-.21.3a15.21,15.21,0,0,1-5.9,5.3c-.09.25-.2.49-.3.73h0c.1-.24.21-.48.3-.73a14.86,14.86,0,0,0,.83-4.86,16.08,16.08,0,0,0-.13-1.83c.17-.06.32-.14.48-.21A8.83,8.83,0,0,0,124,20a6.5,6.5,0,0,0,.92-2.52c0-.05,0-.09,0-.14q0-.37.06-.75v-.1a9,9,0,0,0-.42-2.73h0s0-.06,0-.09l-.09,0v0a12.32,12.32,0,0,0-2.86,1.18l-.1.06c-.24.14-.47.29-.7.45l-.12.09a7.53,7.53,0,0,0-1.94,2,6.56,6.56,0,0,0-1,2.94,12.09,12.09,0,0,0,.1,2.48l-.16.07A19.25,19.25,0,0,0,112,27.49h0l.17-.18a15.61,15.61,0,0,1,1.72-9A9.31,9.31,0,0,0,116,13.82a9.47,9.47,0,0,0-1.88-7c-.14-.18-.26-.37-.4-.56-.2.15-.37.3-.56.46A11.71,11.71,0,0,0,110.36,10a8.73,8.73,0,0,0-1.09,3,8.24,8.24,0,0,0,.09,3h0l0,0a12.39,12.39,0,0,1-1.81,2.72.86.86,0,0,1-.07.1h0l-.09.1c-.15.17-.3.35-.46.51-.14-.18-.25-.37-.38-.56a12,12,0,0,1-1.26-2.31l0-.05A11.2,11.2,0,0,0,105.46.73l-.13-.12c-.18-.2-.35-.41-.55-.61-.2.2-.37.41-.55.61a11.2,11.2,0,0,0-.13,15.84l.13.12,0,.05A12.61,12.61,0,0,1,103,18.93c-.13.19-.25.38-.38.56-.17-.16-.31-.34-.46-.51l-.09-.1h0a.86.86,0,0,1-.07-.1,12.39,12.39,0,0,1-1.81-2.72l0,0h0a8.24,8.24,0,0,0,.09-3,8.73,8.73,0,0,0-1.09-3,11.71,11.71,0,0,0-2.82-3.25c-.19-.16-.36-.31-.56-.46l-.4.56a9.47,9.47,0,0,0-1.88,7,9.31,9.31,0,0,0,2.09,4.49,15.53,15.53,0,0,1,1.72,9l.17.18h0A19.25,19.25,0,0,0,91.89,23l-.16-.07a12.09,12.09,0,0,0,.1-2.48,6.56,6.56,0,0,0-1-2.94,7.53,7.53,0,0,0-1.94-2l-.12-.09c-.23-.16-.46-.31-.7-.45l-.1-.06a12.32,12.32,0,0,0-2.86-1.18v0l-.09,0s0,.06,0,.09h0a9,9,0,0,0-.42,2.73v.1q0,.38.06.75c0,.05,0,.09,0,.14A6.5,6.5,0,0,0,85.58,20a8.83,8.83,0,0,0,4.6,3.44c.16.07.31.15.48.21a14.08,14.08,0,0,0,.7,6.69c.08.25.2.49.29.73h0c-.1-.24-.21-.48-.29-.73A15.24,15.24,0,0,1,85.45,25a2.73,2.73,0,0,0-.21-.3,9.83,9.83,0,0,0-2.74-4,13,13,0,0,0-7.53-3c-.26,0-.5-.06-.77-.07,0,.22,0,.44.07.66a10,10,0,0,0,3.33,6.6,11.31,11.31,0,0,0,1.9,1.32c.14.35.37.9.45,1.09a11.86,11.86,0,0,0,.75,1.41A13,13,0,0,0,83,31.44l-.49,0v0A10,10,0,0,0,78,28.67a11.11,11.11,0,0,0-2.87-.41H75l-.81,0h-.1a12.62,12.62,0,0,0-2.79.53h0l-.09,0,.06.06h0a10.73,10.73,0,0,0,1.87,1.88l.08.06c.2.15.41.3.63.44l.12.08a10.28,10.28,0,0,0,2.58,1.15,11.52,11.52,0,0,0,5.86.08h0c.23,0,.47,0,.7-.1h0l.13,0a22.89,22.89,0,0,1,5.1,2.35,24.45,24.45,0,0,1-11.13,1.65H77a2.83,2.83,0,0,0,.79.31A5.79,5.79,0,0,0,78.9,37a21.68,21.68,0,0,0,8-.56c.34-.08.68-.14,1-.19s.79-.06,1.19-.06c6.54,0,12,4,13.4,9.28.1.63.17,1.26.22,1.9h0c0,3.89,0,8.13-.11,9.85a2,2,0,0,1-1.66,2l0,.23a21.14,21.14,0,0,1,3.81-.23,20.43,20.43,0,0,1,3.75.23l.06-.23a2,2,0,0,1-1.66-2c-.09-1.56-.11-6-.12-9.85h0c.06-.63.13-1.27.23-1.9,1.4-5.31,6.86-9.28,13.4-9.28.4,0,.79,0,1.18.06s.69.11,1,.19a21.68,21.68,0,0,0,8,.56,5.79,5.79,0,0,0,1.09-.19,2.77,2.77,0,0,0,.78-.31h-.15a24.48,24.48,0,0,1-11.11-1.65,22.68,22.68,0,0,1,5.1-2.35l.12,0h0l.7.1h0a11.52,11.52,0,0,0,5.86-.08,9.82,9.82,0,0,0,2.58-1.16l.12-.08c.22-.14.43-.28.64-.44l.07-.06a10.73,10.73,0,0,0,1.88-1.87h0ZM104.77,17.18A7.13,7.13,0,0,1,106,21.12a6.89,6.89,0,0,1-.78,3.18l-.07.11a6,6,0,0,1-.37.65c-.14-.21-.26-.43-.38-.65l-.06-.11a6.89,6.89,0,0,1-.78-3.18A7.13,7.13,0,0,1,104.77,17.18ZM81.48,28.32c-.21-.33-.38-.67-.56-1l-.21-.51a14.09,14.09,0,0,0,3.05.91h0c3.53.91,7.14,3.07,9,6a9,9,0,0,1,.56,1C88.44,34.49,83.91,32.21,81.48,28.32Zm18.6,10.6a18.05,18.05,0,0,1-4.69-3.79,15.62,15.62,0,0,1-2.7-4.32,13.56,13.56,0,0,1-1-6.78c5.08,2.86,8.45,7.82,8.45,13.45A13.9,13.9,0,0,1,100.08,38.92ZM98.14,25A12.52,12.52,0,0,1,100,17.66a12.8,12.8,0,0,1,2.84,7.11A12.49,12.49,0,0,1,101,32.14,12.92,12.92,0,0,1,98.14,25Zm7.3,19.22c-.08.15-.17.29-.26.43L105,45l-.23.33-.22-.33-.18-.3-.27-.43a16.56,16.56,0,0,1-2.32-8.35,16.19,16.19,0,0,1,.58-4.21l.06-.22q.17-.57.36-1.11l.06-.15a17.58,17.58,0,0,1,1.85-3.61l0,0,.06-.11a.41.41,0,0,1,.07.11l0,0a17.58,17.58,0,0,1,1.85,3.61.88.88,0,0,1,.05.15c.14.36.26.74.37,1.11l.06.22a15.77,15.77,0,0,1,.57,4.21,16.4,16.4,0,0,1-2.32,8.36Zm1.29-19.47a12.8,12.8,0,0,1,2.84-7.11A12.44,12.44,0,0,1,111.4,25a12.83,12.83,0,0,1-2.84,7.12,12.56,12.56,0,0,1-1.84-7.36Zm2.73,14.15a13.9,13.9,0,0,1-.08-1.44c0-5.63,3.37-10.59,8.45-13.45a13.55,13.55,0,0,1,.09,1.43,14.23,14.23,0,0,1-1.07,5.35,15.62,15.62,0,0,1-2.7,4.32,18.05,18.05,0,0,1-4.69,3.79Zm6.79-4.16c.17-.34.36-.68.56-1,1.86-3,5.46-5.13,9-6h0a14.12,14.12,0,0,0,3.05-.92l-.21.51a11.33,11.33,0,0,1-.56,1c-2.43,3.89-7,6.17-11.81,6.45Z"/></g></g></g></g></g></g></svg>