<svg xmlns="http://www.w3.org/2000/svg" viewBox="0 0 84.53 55.24"><defs><style>.cls-1{fill:#2f350f;}</style></defs><title>Asset 2</title><g id="Layer_2" data-name="Layer 2"><g id="Layer_1-2" data-name="Layer 1"><g id="Sản_phẩm_-_Chăm_sóc_Da_Chi_tiết_Thêm_vào_giỏ_hàng" data-name="Sản phẩm - Chăm sóc Da Chi tiết Thêm vào giỏ hàng"><g id="Component_14_10" data-name="Component 14 10"><g id="Group_235-2" data-name="Group 235-2"><g id="Group_234-2" data-name="Group 234-2"><path id="Path_78-2" data-name="Path 78-2" class="cls-1" d="M4.81,27.94A6.57,6.57,0,0,1,.73,26.52l-.37-2.1.18-.08a5,5,0,0,0,4.34,3A3.08,3.08,0,0,0,8.19,24.5a2.44,2.44,0,0,0,0-.27c0-2-1.77-2.79-3.6-3.59S.71,19,.71,16.8c0-2.55,2-3.89,4.38-3.89A5,5,0,0,1,8.63,14l.2,1.79-.09.11A3.9,3.9,0,0,0,5,13.56c-1.64,0-2.87.93-2.87,2.48,0,1.75,1.62,2.36,3.37,3.11,2.05.8,4.25,1.77,4.25,4.6C9.71,26.34,7.4,27.94,4.81,27.94Z"/><path id="Path_79-2" data-name="Path 79-2" class="cls-1" d="M26.69,27.6a10,10,0,0,0-1.54-.09,9.57,9.57,0,0,0-1.51.09l0-.09a1,1,0,0,0,.69-.93c.06-1.38,0-2.79,0-6.07H15.2c0,3.29,0,4.69,0,6.07a1,1,0,0,0,.67.93l0,.09a9.57,9.57,0,0,0-1.51-.09,11.27,11.27,0,0,0-1.54.09l0-.09a1,1,0,0,0,.67-.93c.07-1.4,0-2.76,0-6.15s0-4.8,0-6.18a.93.93,0,0,0-.67-.91l0-.1a7.92,7.92,0,0,0,1.54.1,7,7,0,0,0,1.51-.1l0,.1a.93.93,0,0,0-.67.91c-.06,1.34,0,2.66,0,5.64h9.13c0-3,0-4.3,0-5.64a.92.92,0,0,0-.69-.91l0-.1a7,7,0,0,0,1.51.1,7.21,7.21,0,0,0,1.54-.1l0,.1a.93.93,0,0,0-.65.91C26,15.63,26,17.08,26,20.43s0,4.75.07,6.15a.91.91,0,0,0,.65.93Z"/></g></g><g id="Group_236-2" data-name="Group 236-2"><path id="Path_80-2" data-name="Path 80-2" class="cls-1" d="M3,53.94a.18.18,0,0,1,0,.12.16.16,0,0,1-.12,0H2.51A.18.18,0,0,1,2.32,54L.55,50.65h0V54a.11.11,0,0,1,0,.08.09.09,0,0,1-.07,0H.13c-.07,0-.1,0-.1-.07V50a.16.16,0,0,1,.05-.11.16.16,0,0,1,.11,0H.51a.44.44,0,0,1,.16,0,.23.23,0,0,1,.07.1L2.5,53.31h0V50a.11.11,0,0,1,0-.08.09.09,0,0,1,.07,0h.3a.11.11,0,0,1,.08,0A.08.08,0,0,1,3,50Z"/><path id="Path_81-2" data-name="Path 81-2" class="cls-1" d="M7.06,53.88A.11.11,0,0,1,7,54a3.63,3.63,0,0,1-.45.1,3,3,0,0,1-.52,0,1.62,1.62,0,0,1-1-.22.89.89,0,0,1-.29-.72v-.05a.9.9,0,0,1,.14-.53.85.85,0,0,1,.44-.3,3.08,3.08,0,0,1,.8-.1h.43V52a.71.71,0,0,0-.14-.5A.65.65,0,0,0,6,51.36a2.27,2.27,0,0,0-.45,0l-.43.11a.09.09,0,0,1-.1,0,.08.08,0,0,1,0-.07v-.22a.12.12,0,0,1,.08-.1A2,2,0,0,1,5.4,51a2.48,2.48,0,0,1,.54-.06c.75,0,1.12.36,1.12,1.08Zm-.5-.18V52.59H6.13a1.56,1.56,0,0,0-.43,0,.52.52,0,0,0-.26.1.31.31,0,0,0-.13.17.75.75,0,0,0,0,.26v.05a.71.71,0,0,0,.07.32.39.39,0,0,0,.22.18,1.41,1.41,0,0,0,.46,0h.22l.19,0Z"/><path id="Path_82-2" data-name="Path 82-2" class="cls-1" d="M10.55,54s0,.09-.1.1l-.37,0a.92.92,0,0,1-.6-.15.84.84,0,0,1-.18-.61v-2l-.55-.06c-.08,0-.11,0-.11-.1v-.16c0-.07,0-.1.11-.1H9.3V50.4a.12.12,0,0,1,.1-.12l.3,0h0a.07.07,0,0,1,.06,0,.09.09,0,0,1,0,.06V51h.61a.11.11,0,0,1,.08,0,.1.1,0,0,1,0,.08v.2a.09.09,0,0,1,0,.08.11.11,0,0,1-.08,0H9.81v2a.46.46,0,0,0,.06.3.35.35,0,0,0,.24.06h.33c.08,0,.12,0,.12.08Z"/><path id="Path_83-2" data-name="Path 83-2" class="cls-1" d="M12.13,53V51.07a.11.11,0,0,1,0-.08.08.08,0,0,1,.08,0h.28a.08.08,0,0,1,.08,0,.11.11,0,0,1,0,.08v1.87a.84.84,0,0,0,.16.6.66.66,0,0,0,.5.18l.36,0,.38-.08V51.07a.14.14,0,0,1,.12-.12h.28a.09.09,0,0,1,.08,0,.11.11,0,0,1,0,.08v2.76a.13.13,0,0,1-.1.13,4.83,4.83,0,0,1-1.19.18,1.42,1.42,0,0,1-.67-.14.8.8,0,0,1-.35-.4A1.8,1.8,0,0,1,12.13,53Z"/><path id="Path_84-2" data-name="Path 84-2" class="cls-1" d="M17.5,50.91a2.34,2.34,0,0,1,.38,0A.11.11,0,0,1,18,51a.15.15,0,0,1,0,.09v.2a.11.11,0,0,1,0,.08.1.1,0,0,1-.09,0h-.38a2.65,2.65,0,0,0-.68.09V54a.11.11,0,0,1-.11.11h-.28a.1.1,0,0,1-.11-.11V51.22a.15.15,0,0,1,.1-.14A5.61,5.61,0,0,1,17,51,2.74,2.74,0,0,1,17.5,50.91Z"/><path id="Path_85-2" data-name="Path 85-2" class="cls-1" d="M21.74,53.88a.11.11,0,0,1-.08.13,3.63,3.63,0,0,1-.45.1,3,3,0,0,1-.52,0,1.62,1.62,0,0,1-1-.22.83.83,0,0,1-.29-.72v-.05a1,1,0,0,1,.13-.53.89.89,0,0,1,.44-.3,3.08,3.08,0,0,1,.8-.1h.43V52a.71.71,0,0,0-.14-.5.65.65,0,0,0-.47-.13,2.27,2.27,0,0,0-.45,0l-.43.11a.09.09,0,0,1-.1,0,.06.06,0,0,1,0-.07v-.22a.1.1,0,0,1,.08-.1,1.63,1.63,0,0,1,.39-.13,2.33,2.33,0,0,1,.53-.06c.75,0,1.12.36,1.12,1.08Zm-.5-.18V52.59h-.42a1.53,1.53,0,0,0-.43,0,.49.49,0,0,0-.26.1.39.39,0,0,0-.14.17.75.75,0,0,0,0,.26v.05a.87.87,0,0,0,.06.32.38.38,0,0,0,.23.18,1.38,1.38,0,0,0,.45,0h.22l.2,0,.13,0Z"/><path id="Path_86-2" data-name="Path 86-2" class="cls-1" d="M24.07,54a.11.11,0,0,1,0,.08.11.11,0,0,1-.07,0h-.3a.1.1,0,0,1-.11-.11V49.91a.1.1,0,0,1,.11-.11H24a.11.11,0,0,1,.07,0,.11.11,0,0,1,0,.08Z"/><path id="Path_87-2" data-name="Path 87-2" class="cls-1" d="M31.18,51.13c0,.85-.53,1.28-1.6,1.28l-.57,0V54a.11.11,0,0,1,0,.08.09.09,0,0,1-.07,0H28.6a.11.11,0,0,1-.08,0,.11.11,0,0,1,0-.08V50a.13.13,0,0,1,.12-.14h0a7.66,7.66,0,0,1,.95,0,3.06,3.06,0,0,1,.85.12,1.08,1.08,0,0,1,.76,1.12Zm-.52,0v-.08a.69.69,0,0,0-.26-.61,1.46,1.46,0,0,0-.82-.19l-.57,0V52h.57a2.16,2.16,0,0,0,.62-.09.61.61,0,0,0,.35-.28A1,1,0,0,0,30.66,51.13Z"/><path id="Path_88-2" data-name="Path 88-2" class="cls-1" d="M35.26,54a.12.12,0,0,1,0,.08.11.11,0,0,1-.08,0h-.27a.11.11,0,0,1-.12-.11h0V52.1a.82.82,0,0,0-.16-.58.54.54,0,0,0-.45-.16,1.72,1.72,0,0,0-.39,0,1.82,1.82,0,0,0-.4.11V54a.11.11,0,0,1-.11.11H33a.1.1,0,0,1-.11-.11V49.91A.1.1,0,0,1,33,49.8h.28a.1.1,0,0,1,.11.11v1.18a2.13,2.13,0,0,1,.43-.13,3.49,3.49,0,0,1,.44-.05,1.17,1.17,0,0,1,.55.13.9.9,0,0,1,.36.39,1.72,1.72,0,0,1,.13.68Z"/><path id="Path_89-2" data-name="Path 89-2" class="cls-1" d="M39.5,51.05s0,0,0,0l-1,3.3a1.62,1.62,0,0,1-.21.51.72.72,0,0,1-.31.26,1.32,1.32,0,0,1-.52.08,2.61,2.61,0,0,1-.48-.05c-.08,0-.12,0-.12-.1v-.21c0-.06,0-.09.11-.09h0l.51,0a.62.62,0,0,0,.38-.1.75.75,0,0,0,.19-.39l.06-.24h-.08a.37.37,0,0,1-.25-.07.68.68,0,0,1-.18-.32l-.76-2.62v0c0-.06,0-.09.1-.09h.31a.06.06,0,0,1,.06,0,.09.09,0,0,1,0,.06l.68,2.48c0,.08,0,.13.1.13h.1L39,51s0,0,0-.06l.07,0h.32C39.48,51,39.5,51,39.5,51.05Z"/><path id="Path_90-2" data-name="Path 90-2" class="cls-1" d="M42.87,54s0,.09-.11.1l-.37,0a.92.92,0,0,1-.6-.15.79.79,0,0,1-.17-.61v-2l-.56-.06c-.07,0-.11,0-.11-.1v-.16c0-.07,0-.1.11-.1h.56V50.4a.11.11,0,0,1,.1-.12l.29,0h0a.06.06,0,0,1,.06,0,.09.09,0,0,1,0,.06V51h.62a.11.11,0,0,1,.08,0,.13.13,0,0,1,0,.08v.2a.12.12,0,0,1-.11.11h-.62v2a.52.52,0,0,0,.06.3.36.36,0,0,0,.25.06h.32c.08,0,.12,0,.12.08Z"/><path id="Path_91-2" data-name="Path 91-2" class="cls-1" d="M46.9,52.75a1.51,1.51,0,0,1-.33,1,1.38,1.38,0,0,1-1.89,0,1.51,1.51,0,0,1-.33-1v-.44a1.51,1.51,0,0,1,.33-1,1.38,1.38,0,0,1,1.89,0,1.51,1.51,0,0,1,.33,1Zm-.5,0v-.44a1.47,1.47,0,0,0-.08-.51.7.7,0,0,0-.26-.33.73.73,0,0,0-.43-.11.66.66,0,0,0-.58.25,1.08,1.08,0,0,0-.19.7v.44c0,.63.26,1,.77,1a.66.66,0,0,0,.58-.25,1.14,1.14,0,0,0,.19-.7Z"/><path id="Path_92-2" data-name="Path 92-2" class="cls-1" d="M51.11,52.38v-.8a1.8,1.8,0,0,1,.43-1.37,1.57,1.57,0,0,1,1.1-.4,2.2,2.2,0,0,1,.36,0l.34.1.25.11a.09.09,0,0,1,.06.09v.28a.05.05,0,0,1,0,0,.08.08,0,0,1-.07,0l-.43-.13a2,2,0,0,0-.48-.06c-.67,0-1,.43-1,1.3v.78a1.87,1.87,0,0,0,.13.77.78.78,0,0,0,.35.41,1.07,1.07,0,0,0,.53.13,3.14,3.14,0,0,0,.91-.19.11.11,0,0,1,.08,0,.08.08,0,0,1,0,0v.28a.09.09,0,0,1-.06.09l-.25.11a1.89,1.89,0,0,1-.34.09,1.47,1.47,0,0,1-.36,0,1.53,1.53,0,0,1-1.1-.4A1.77,1.77,0,0,1,51.11,52.38Z"/><path id="Path_93-2" data-name="Path 93-2" class="cls-1" d="M57.75,52.75a1.5,1.5,0,0,1-.32,1,1.38,1.38,0,0,1-1.89,0,1.51,1.51,0,0,1-.33-1v-.44a1.51,1.51,0,0,1,.33-1,1.38,1.38,0,0,1,1.89,0,1.45,1.45,0,0,1,.32,1Zm-.5,0v-.44a1.27,1.27,0,0,0-.08-.51.68.68,0,0,0-.25-.33.74.74,0,0,0-.44-.11.67.67,0,0,0-.58.25,1.21,1.21,0,0,0-.19.7v.44c0,.63.26,1,.77,1a.66.66,0,0,0,.58-.25,1.08,1.08,0,0,0,.19-.7Z"/><path id="Path_94-2" data-name="Path 94-2" class="cls-1" d="M60.32,53.71c.42,0,.63-.14.63-.43a.32.32,0,0,0-.09-.23,1.24,1.24,0,0,0-.34-.22l-.58-.3a1.39,1.39,0,0,1-.44-.36.81.81,0,0,1-.15-.48.74.74,0,0,1,.16-.47.86.86,0,0,1,.4-.24,2,2,0,0,1,.54-.07,2.31,2.31,0,0,1,.46.05,1.23,1.23,0,0,1,.34.11l.06,0a.07.07,0,0,1,0,.06v.24a.08.08,0,0,1,0,.07.09.09,0,0,1-.1,0l-.37-.1a2.45,2.45,0,0,0-.38,0,1.25,1.25,0,0,0-.43.07.26.26,0,0,0-.16.28.34.34,0,0,0,.09.24,1,1,0,0,0,.3.21l.57.29a1.85,1.85,0,0,1,.37.25.86.86,0,0,1,.2.27.61.61,0,0,1,0,.3.81.81,0,0,1-.14.5.85.85,0,0,1-.4.3,1.65,1.65,0,0,1-.58.1,2,2,0,0,1-.49-.06,2.29,2.29,0,0,1-.37-.12.14.14,0,0,1-.08-.1v-.25a.09.09,0,0,1,0-.08h.1A2,2,0,0,0,60.32,53.71Z"/><path id="Path_95-2" data-name="Path 95-2" class="cls-1" d="M63.14,54V51.23a.12.12,0,0,1,.1-.14l.64-.14a4.38,4.38,0,0,1,.5,0,1.21,1.21,0,0,1,.38.06.57.57,0,0,1,.28.17,2.11,2.11,0,0,1,.95-.23,1,1,0,0,1,.48.1.75.75,0,0,1,.33.33,1.32,1.32,0,0,1,.12.62v2a.12.12,0,0,1,0,.09.16.16,0,0,1-.09,0h-.27a.1.1,0,0,1-.11-.11V52a.75.75,0,0,0-.14-.48.53.53,0,0,0-.38-.13,1.87,1.87,0,0,0-.67.15,2.3,2.3,0,0,1,0,.45v2a.16.16,0,0,1,0,.08.11.11,0,0,1-.07,0h-.3a.08.08,0,0,1-.07,0,.13.13,0,0,1,0-.08V52a1.14,1.14,0,0,0,0-.37.28.28,0,0,0-.14-.18.43.43,0,0,0-.25,0,2.37,2.37,0,0,0-.7.1V54a.11.11,0,0,1,0,.08.11.11,0,0,1-.07,0h-.3a.09.09,0,0,1-.07,0A.11.11,0,0,1,63.14,54Z"/><path id="Path_96-2" data-name="Path 96-2" class="cls-1" d="M69.91,53.7a2.34,2.34,0,0,0,.38,0l.36-.1.28-.1a.08.08,0,0,1,.13.07v.24s0,.07-.08.1a2.28,2.28,0,0,1-1.06.26,1.43,1.43,0,0,1-.65-.13.94.94,0,0,1-.47-.43,1.63,1.63,0,0,1-.18-.81v-.52a1.41,1.41,0,0,1,.33-1,1.26,1.26,0,0,1,.94-.36,1.38,1.38,0,0,1,.69.17,1,1,0,0,1,.42.47,1.69,1.69,0,0,1,.15.7v.31c0,.09,0,.13-.11.13H69.12v.08a1.11,1.11,0,0,0,.19.71A.75.75,0,0,0,69.91,53.7Zm.73-1.4v0a1.54,1.54,0,0,0-.09-.52.54.54,0,0,0-.25-.29,1,1,0,0,0-.41-.09c-.52,0-.77.3-.77.9v.06Z"/><path id="Path_97-2" data-name="Path 97-2" class="cls-1" d="M74.56,54s0,.09-.1.1l-.37,0a.9.9,0,0,1-.6-.15.79.79,0,0,1-.18-.61v-2l-.56-.06c-.07,0-.11,0-.11-.1v-.16c0-.07,0-.1.11-.1h.56V50.4a.11.11,0,0,1,.1-.12l.3,0h0l.06,0a.07.07,0,0,1,0,.06V51h.62a.11.11,0,0,1,.08,0,.13.13,0,0,1,0,.08v.2a.1.1,0,0,1-.11.11h-.62v2a.46.46,0,0,0,.07.3.34.34,0,0,0,.24.06h.32c.08,0,.12,0,.12.08Z"/><path id="Path_98-2" data-name="Path 98-2" class="cls-1" d="M76.7,50.34a.11.11,0,0,1,0,.08.13.13,0,0,1-.08,0H76.3a.11.11,0,0,1-.12-.11h0v-.46a.11.11,0,0,1,0-.08.09.09,0,0,1,.09,0h.29a.1.1,0,0,1,.11.09v.48Zm0,3.65a.11.11,0,0,1,0,.08.13.13,0,0,1-.08,0H76.3a.1.1,0,0,1-.11-.11V51.07A.11.11,0,0,1,76.3,51h.28a.1.1,0,0,1,.11.09V54Z"/><path id="Path_99-2" data-name="Path 99-2" class="cls-1" d="M79.65,54.14a1.34,1.34,0,0,1-.52-.1,1,1,0,0,1-.39-.28,1.27,1.27,0,0,1-.23-.43,1.88,1.88,0,0,1-.07-.58V52.3a1.9,1.9,0,0,1,.13-.74,1,1,0,0,1,.41-.48,1.24,1.24,0,0,1,.67-.17,1.74,1.74,0,0,1,.45.06.86.86,0,0,1,.3.12l.07,0a.19.19,0,0,1,0,.08v.2c0,.08,0,.1-.14.07a2.07,2.07,0,0,0-.7-.13c-.47,0-.71.32-.71.95v.45a1.18,1.18,0,0,0,.18.71.65.65,0,0,0,.53.24,2.34,2.34,0,0,0,.7-.13c.09,0,.14,0,.14.07v.21a.19.19,0,0,1,0,.07.18.18,0,0,1-.07,0,1.63,1.63,0,0,1-.31.11A1.61,1.61,0,0,1,79.65,54.14Z"/><path id="Path_100-2" data-name="Path 100-2" class="cls-1" d="M83,53.71c.42,0,.62-.14.62-.43a.32.32,0,0,0-.09-.23,1.19,1.19,0,0,0-.33-.22l-.58-.3a1.39,1.39,0,0,1-.44-.36.81.81,0,0,1-.15-.48.69.69,0,0,1,.16-.47.81.81,0,0,1,.4-.24,2,2,0,0,1,.54-.07,2.4,2.4,0,0,1,.46.05,1.35,1.35,0,0,1,.34.11l.06,0a.07.07,0,0,1,0,.06v.24a.07.07,0,0,1,0,.07.09.09,0,0,1-.1,0l-.37-.1a2.33,2.33,0,0,0-.37,0,1.21,1.21,0,0,0-.43.07.26.26,0,0,0-.16.28.3.3,0,0,0,.09.24,1,1,0,0,0,.3.21l.57.29a1.85,1.85,0,0,1,.37.25.86.86,0,0,1,.2.27.61.61,0,0,1,.05.3.81.81,0,0,1-.14.5.85.85,0,0,1-.4.3,1.65,1.65,0,0,1-.58.1,2,2,0,0,1-.49-.06,2.29,2.29,0,0,1-.37-.12.14.14,0,0,1-.08-.1v-.25a.09.09,0,0,1,0-.08h.1A2,2,0,0,0,83,53.71Z"/></g><g id="Group_238-2" data-name="Group 238-2"><g id="Group_237-2" data-name="Group 237-2"><path id="Path_101-2" data-name="Path 101-2" class="cls-1" d="M60.54,28a6.56,6.56,0,0,1-4.08-1.43l-.37-2.09.17-.09a5,5,0,0,0,4.34,3,3.08,3.08,0,0,0,3.32-2.81c0-.09,0-.18,0-.28,0-2-1.77-2.78-3.61-3.58s-3.89-1.64-3.89-3.84c0-2.55,2-3.89,4.39-3.89a5,5,0,0,1,3.54,1.12l.19,1.79-.08.11a3.89,3.89,0,0,0-3.78-2.37c-1.64,0-2.87.92-2.87,2.48,0,1.75,1.62,2.35,3.37,3.11,2.05.8,4.25,1.77,4.25,4.6C65.44,26.43,63.13,28,60.54,28Z"/><path id="Path_102-2" data-name="Path 102-2" class="cls-1" d="M76.78,28a7.52,7.52,0,1,1,7.75-7.52A7.45,7.45,0,0,1,77.16,28Zm0-14.38c-3.22,0-6,2.61-6,6.86s2.74,6.87,6,6.87,5.91-2.62,5.91-6.87S80,13.65,76.78,13.65Z"/></g></g><path id="Path_103-2" data-name="Path 103-2" class="cls-1" d="M3.65,43.78c-1.1,0-3,0-3.65-.09v-.08c.35-.07.63-.24.65-.84.06-1.4,0-2.77,0-6.16s0-4.79,0-6.17c0-.6-.3-.8-.65-.82v-.09c.71-.07,2.09-.09,2.44-.09,3.78,0,5.74,1.3,5.74,3.35,0,1.9-1.87,3.2-3.75,3.26,3.21,0,5.59,1.19,5.59,3.8S7.1,43.78,3.65,43.78ZM2.42,30c-.07,1.3,0,3,0,5.88h.41c2.26,0,3.67-1,3.67-3.09S4.83,30,2.42,30Zm1.42,6.42a10.13,10.13,0,0,0-1.46.08v.35c0,3.37,0,5,0,6.39.26,0,.52,0,.75,0,3.22,0,5.08-1.14,5.08-3.41S6.78,36.42,3.84,36.42Z"/><path id="Path_104-2" data-name="Path 104-2" class="cls-1" d="M23.11,42a12.81,12.81,0,0,0-.78,1.68H14.4a12.75,12.75,0,0,0-1.51.09l0-.09a1.14,1.14,0,0,0,.67-.93c.06-1.4,0-2.76,0-6.15s0-4.79,0-6.18a.91.91,0,0,0-.67-.9l0-.11a7.68,7.68,0,0,0,1.51.11h7.19a9.89,9.89,0,0,0,.52,1.68l-.11.11c-1.1-1-2.8-1.34-5-1.34a16.46,16.46,0,0,0-1.72,0c-.07,1.73,0,3.11,0,6.14,4.82-.07,5.08-.18,5.32-.93l.1,0a5.49,5.49,0,0,0-.1,1.14,4.76,4.76,0,0,0,.1,1.13l-.1.06c-.3-.75-.52-.93-5.32-.93v0c0,3.33,0,5.12,0,6.5.58,0,1.16,0,1.75,0,2.37,0,4.6-.29,6-1.3Z"/><path id="Path_105-2" data-name="Path 105-2" class="cls-1" d="M39.89,43.78a16.32,16.32,0,0,0-1.71-.09q-.93,0-1.86.09l0-.09c.54-.23.72-.56.56-.93-.41-1-.84-1.92-1.64-3.56h-7c-.76,1.64-1.15,2.55-1.56,3.56-.15.37,0,.7.58.93l0,.09A8.48,8.48,0,0,0,26,43.69a8.66,8.66,0,0,0-1.25.09l-.05-.09a1.91,1.91,0,0,0,1.17-1.12c.76-1.38,1.3-2.5,2.85-5.76s2.83-6.07,3.43-7.45h.3c.57,1.36,1.88,4.14,3.44,7.45s2,4.23,2.76,5.61a2.68,2.68,0,0,0,1.28,1.27Zm-5-5.16c-.24-.54-.52-1.15-.84-1.81-1.49-3.22-1.73-3.83-2.42-5.25-.69,1.42-1.12,2.52-2.4,5.25-.32.69-.6,1.27-.84,1.81Z"/><path id="Path_106-2" data-name="Path 106-2" class="cls-1" d="M53.61,29.53a.91.91,0,0,0-.65.9c-.07,1.39-.07,4.34-.07,7.69,0,4-2.44,6-5.46,6-3.35,0-6.09-1.57-6.09-5.79,0-3.34,0-6.52,0-7.9a.93.93,0,0,0-.67-.9l0-.11a7.12,7.12,0,0,0,1.53.11,6.94,6.94,0,0,0,1.51-.11l0,.11a.91.91,0,0,0-.66.9c-.07,1.39,0,4.56,0,7.9s1.71,4.9,4.71,4.9c2.79,0,4.62-1.81,4.62-5.11,0-4,0-6.29-.06-7.69a.93.93,0,0,0-.7-.91l0-.11a3.67,3.67,0,0,0,1,.11,3.31,3.31,0,0,0,1-.11Z"/><path id="Path_107-2" data-name="Path 107-2" class="cls-1" d="M68.12,31.32a8.43,8.43,0,0,0-5.27-1.27v6.56c0,3.39,0,4.75,0,6.15a1.07,1.07,0,0,0,.69.93l0,.09A12.62,12.62,0,0,0,62,43.69a13.08,13.08,0,0,0-1.53.09l0-.09a1.07,1.07,0,0,0,.69-.93c.06-1.4,0-2.76,0-6.15V30.05a8.78,8.78,0,0,0-5.29,1.27l-.11-.09a13.93,13.93,0,0,0,.52-1.7H67.71a14.18,14.18,0,0,0,.52,1.68Z"/><path id="Path_108-2" data-name="Path 108-2" class="cls-1" d="M84.14,29.53a3.18,3.18,0,0,0-1.34,1.12c-1,1.27-1.21,1.73-2.85,3.89L78.14,37c0,3.41,0,4.36,0,5.74a1,1,0,0,0,.69.93l0,.09a12.75,12.75,0,0,0-1.51-.09,13.13,13.13,0,0,0-1.54.09l0-.09a1,1,0,0,0,.65-.93c.06-1.34.06-2.37.06-5.63l-1.9-2.59C73,32.38,72.5,31.6,71.87,30.8c-.41-.58-.9-1.17-1.31-1.27l0-.11a8.63,8.63,0,0,0,1.68.11,13.12,13.12,0,0,0,2.08-.11l0,.11c-.63.23-.8.47-.6.82.8,1.31,1.32,2,2.87,4.19L78,36.37c.41-.58.78-1.14,1.36-1.9,1.27-1.75,1.68-2.33,2.83-4.06.24-.39.06-.69-.52-.88l0-.11a6.48,6.48,0,0,0,1.32.11,5,5,0,0,0,1.16-.11Z"/><path id="Path_109-2" data-name="Path 109-2" class="cls-1" d="M48.81,13.31l.13-.36Z"/><path id="Path_110-2" data-name="Path 110-2" class="cls-1" d="M55.69,13.4h0a4.76,4.76,0,0,0-1.12-.24H54.1a3.75,3.75,0,0,0-1.15.19,4,4,0,0,0-1.83,1.29h-.19a6,6,0,0,0,1.23-1.94l.18-.5a4.52,4.52,0,0,0,.76-.61,4.92,4.92,0,0,0,1.34-3.07,3,3,0,0,0,0-.31l-.31,0a4.91,4.91,0,0,0-3,1.4A4.51,4.51,0,0,0,50,11.48a1,1,0,0,0-.08.14,6.61,6.61,0,0,1-2.38,2.46l-.12.34h0l.12-.34a7.67,7.67,0,0,0,.28-3.1l.2-.1a3.76,3.76,0,0,0,1.85-1.6,3.48,3.48,0,0,0,.37-1.17V8c0-.11,0-.23,0-.35v0a4.92,4.92,0,0,0-.17-1.27h0v0l0,0h0a4.48,4.48,0,0,0-1.15.54l0,0a1.86,1.86,0,0,0-.28.21l-.05,0a3.24,3.24,0,0,0-1.17,2.31,7.33,7.33,0,0,0,0,1.15l-.06,0a8.07,8.07,0,0,0-2.27,2.09h0l.07-.09a8.17,8.17,0,0,1,.69-4.17,4.68,4.68,0,0,0,.85-2.09,4.92,4.92,0,0,0-.76-3.23l-.16-.26-.23.21a5.24,5.24,0,0,0-1.13,1.51A4.34,4.34,0,0,0,44,7.43h0v0a6,6,0,0,1-.72,1.26l0,0h0l0,.05L43,9.05c-.06-.09-.1-.18-.16-.26a5.89,5.89,0,0,1-.5-1.08l0,0a5.78,5.78,0,0,0,0-7.41L42.17,0c-.08.09-.15.19-.22.28a5.78,5.78,0,0,0,0,7.41l0,0a6.68,6.68,0,0,1-.51,1.08l-.15.26-.19-.24,0-.05h0l0,0a6.08,6.08,0,0,1-.73-1.26v0h0a4.41,4.41,0,0,0-.4-2.79,5.28,5.28,0,0,0-1.14-1.51l-.22-.21-.16.26a4.92,4.92,0,0,0-.76,3.23,4.56,4.56,0,0,0,.84,2.09,8.17,8.17,0,0,1,.69,4.17l.07.09h0A7.81,7.81,0,0,0,37,10.67l-.06,0a6.29,6.29,0,0,0,0-1.15A3.23,3.23,0,0,0,35.8,7.17l0,0a1.94,1.94,0,0,0-.29-.21l0,0a4.54,4.54,0,0,0-1.16-.54h0l0,0a.06.06,0,0,1,0,0h0a4.92,4.92,0,0,0-.17,1.27v0c0,.12,0,.24,0,.35a.17.17,0,0,0,0,.07,3.48,3.48,0,0,0,.37,1.17,3.76,3.76,0,0,0,1.85,1.6l.19.1a7.56,7.56,0,0,0,.29,3.1,3.4,3.4,0,0,0,.12.34h0a3.4,3.4,0,0,1-.12-.34,6.46,6.46,0,0,1-2.38-2.46,1,1,0,0,1-.08-.14,4.63,4.63,0,0,0-1.1-1.86,4.92,4.92,0,0,0-3-1.4l-.31,0c0,.1,0,.21,0,.31a5,5,0,0,0,1.34,3.07,5,5,0,0,0,.76.61c.06.16.15.41.19.5a6.62,6.62,0,0,0,.3.66,6.06,6.06,0,0,0,.93,1.28h-.2a3.94,3.94,0,0,0-1.82-1.29,3.81,3.81,0,0,0-1.16-.19h-.43a4.76,4.76,0,0,0-1.12.24h0l0,0h0a4.79,4.79,0,0,0,.75.87l0,0,.26.2.05,0a4,4,0,0,0,1,.54,4.09,4.09,0,0,0,2.35,0h0l.28,0h0l.06,0a8.79,8.79,0,0,1,2,1.09,8.84,8.84,0,0,1-4.48.77H31a1.3,1.3,0,0,0,.32.14,1.65,1.65,0,0,0,.43.09A7.46,7.46,0,0,0,35,16.94l.41-.09.48,0a5.54,5.54,0,0,1,5.4,4.3c0,.29.06.59.09.88h0c0,1.8,0,3.77-.05,4.57a.93.93,0,0,1-.67.91l0,.1a7.16,7.16,0,0,1,1.53-.1,7,7,0,0,1,1.52.1l0-.1a.93.93,0,0,1-.67-.91c0-.72,0-2.78,0-4.57h0c0-.29,0-.59.09-.88a5.54,5.54,0,0,1,5.4-4.3l.48,0,.41.09a7.43,7.43,0,0,0,3.21.26,1.64,1.64,0,0,0,.44-.09,1.3,1.3,0,0,0,.32-.14h-.07a8.82,8.82,0,0,1-4.47-.77,8.41,8.41,0,0,1,2-1.09l0,0h0l.29,0h0a3.82,3.82,0,0,0,3.39-.57l0,0a2.43,2.43,0,0,0,.25-.2l0,0a4.84,4.84,0,0,0,.76-.87h0ZM42.17,8a3.63,3.63,0,0,1,.18,3.3l0,.05c0,.1-.1.2-.15.3l-.15-.3,0-.05A3.63,3.63,0,0,1,42.17,8ZM32.8,13.16a5.24,5.24,0,0,1-.23-.48l-.08-.23a5.26,5.26,0,0,0,1.23.42h0a6.23,6.23,0,0,1,3.62,2.8c.08.16.15.31.22.47a5.8,5.8,0,0,1-4.75-3Zm7.48,4.91a7.64,7.64,0,0,1-1.88-1.75,7.39,7.39,0,0,1-1.52-4.49c0-.23,0-.45,0-.67a7.44,7.44,0,0,1,3.4,6.25,4.86,4.86,0,0,1,0,.66Zm-.78-6.45a6.53,6.53,0,0,1,.74-3.41,6.48,6.48,0,0,1,.41,6.72,6.56,6.56,0,0,1-1.15-3.31Zm2.94,8.92a1.28,1.28,0,0,1-.11.2l-.07.14-.09.15-.09-.15L42,20.74c0-.06-.07-.13-.11-.2a8.46,8.46,0,0,1-.7-5.83l0-.1c0-.17.09-.34.14-.51a.25.25,0,0,0,0-.07,8.71,8.71,0,0,1,.75-1.68v0a.14.14,0,0,0,0-.06l0,.06v0A9.32,9.32,0,0,1,43,14a.14.14,0,0,1,0,.07c.06.17.1.34.15.51l0,.1a8.41,8.41,0,0,1-.7,5.83Zm.52-9a6.42,6.42,0,0,1,1.14-3.3,6.48,6.48,0,0,1-.41,6.72A6.53,6.53,0,0,1,43,11.51Zm1.1,6.56c0-.22,0-.44,0-.66a7.44,7.44,0,0,1,3.4-6.25c0,.22,0,.44,0,.67A7.4,7.4,0,0,1,46,16.31a7.71,7.71,0,0,1-1.89,1.76Zm2.73-1.92c.07-.16.14-.32.22-.48a6.23,6.23,0,0,1,3.62-2.8h0a4.83,4.83,0,0,0,1.23-.42l-.08.24a5.08,5.08,0,0,1-.23.47,5.79,5.79,0,0,1-4.75,3Z"/></g></g></g></g></svg>